<?xml version="1.0" encoding="UTF-8"?>
<svg version="1.1" xmlns="http://www.w3.org/2000/svg" width="1920" height="1080">
<path d="M0 0 C0.93072236 -0.00050838 1.86144472 -0.00101676 2.82037079 -0.00154054 C3.82806956 0.00303613 4.83576832 0.00761279 5.87400341 0.01232815 C6.94160644 0.0132296 8.00920948 0.01413106 9.10916412 0.01505983 C12.64214738 0.01932277 16.17506747 0.03083151 19.70803356 0.04246426 C22.19957854 0.04711922 24.69112429 0.0513783 27.18267059 0.0552597 C33.62126693 0.06673114 40.05982705 0.08459662 46.49840117 0.10486364 C50.02750401 0.11581 53.55660753 0.12555256 57.08571529 0.13476086 C72.58577812 0.17572082 88.08574022 0.23513507 103.58571911 0.30003262 C105.98140807 0.30992835 108.37709708 0.31981141 110.77278614 0.32968235 C121.97138477 0.37598198 133.169978 0.42338735 144.36856574 0.47224945 C157.19036672 0.52815284 170.01217646 0.57990788 182.83400744 0.62843078 C192.85719222 0.66662729 202.88035711 0.70855245 212.90351468 0.75331742 C218.85077569 0.77978771 224.79803296 0.80464904 230.74531651 0.82551289 C236.2887819 0.84504527 241.83220785 0.86917793 247.37563801 0.89692974 C249.40743202 0.90629451 251.43923461 0.91397186 253.47104168 0.91985798 C256.23649875 0.92812244 259.00186082 0.94239696 261.76728344 0.95822048 C262.97754445 0.95968764 262.97754445 0.95968764 264.21225518 0.96118444 C267.72034533 0.98712316 270.85442357 1.17621133 274.23025036 2.11643887 C274.26988903 2.88496181 274.3095277 3.65348476 274.35036755 4.44529629 C275.92913415 33.7113552 280.08732812 60.10152441 294.23025036 86.11643887 C294.72162487 87.03682949 294.72162487 87.03682949 295.22292614 87.97581387 C301.52575114 99.73355019 309.11042193 110.09126837 318.18728161 119.86253262 C320.23025036 122.11643887 320.23025036 122.11643887 322.17165661 124.62815762 C324.36944338 127.28468546 326.67462311 129.32661744 329.35525036 131.49143887 C330.65849255 132.55491543 330.65849255 132.55491543 331.98806286 133.63987637 C334.73097154 135.78866106 337.57509971 137.77848089 340.43288708 139.77122402 C341.3317564 140.39856441 342.23062572 141.02590481 343.15673351 141.67225552 C344.18312435 142.38712627 344.18312435 142.38712627 345.23025036 143.11643887 C345.24238064 142.06432972 345.24238064 142.06432972 345.25475597 140.99096584 C345.33350216 134.30027788 345.4210146 127.60976443 345.51777744 120.91931152 C345.56720149 117.48172299 345.61352362 114.04415754 345.65212536 110.6064291 C345.9841974 81.40962314 345.9841974 81.40962314 348.23025036 67.11643887 C347.24105602 67.13214931 346.25186169 67.14785976 345.23269176 67.16404629 C341.56887459 67.21827347 337.90509299 67.25276222 334.24099255 67.28123379 C332.65401784 67.29633701 331.06708498 67.31682109 329.48025036 67.34275723 C327.20149963 67.37907481 324.92329977 67.3961491 322.64431286 67.40940762 C321.93280071 67.42489147 321.22128857 67.44037533 320.48821545 67.45632839 C318.48659801 67.45701504 318.48659801 67.45701504 315.23025036 67.11643887 C312.89115729 63.60779926 312.81733979 62.24554454 313.23025036 58.11643887 C314.25026989 55.46092129 314.25026989 55.46092129 316.23025036 53.11643887 C319.08465991 52.61399556 321.36612576 52.44117167 324.22243786 52.47972012 C325.00539227 52.46934216 325.78834667 52.4589642 326.59502697 52.44827175 C329.09887938 52.41855341 331.6012533 52.42196595 334.10525036 52.42893887 C336.60169078 52.4200316 339.09773445 52.40400176 341.59405041 52.37747097 C343.14661577 52.36261965 344.69933541 52.35871491 346.25194836 52.36724758 C350.33986078 52.3457853 353.61619944 52.10425037 357.23025036 50.11643887 C358.77500613 48.00041492 360.06546729 46.00044225 361.35525036 43.74143887 C374.92053171 21.4315245 395.47877014 8.81325511 420.34743786 2.30003262 C445.62536725 -2.82000124 470.82701707 3.32158105 492.23025036 17.11643887 C503.44446362 25.1371032 512.20741556 34.95285965 519.53884411 46.58518887 C521.53239771 49.71122375 521.53239771 49.71122375 524.23025036 52.11643887 C527.04815296 52.42375449 529.65651707 52.55742712 532.47634411 52.55784512 C533.6876273 52.5776569 533.6876273 52.5776569 534.92338085 52.59786892 C537.50487227 52.63877769 540.08600809 52.66043434 542.66775036 52.67893887 C545.24581281 52.70274524 547.82354113 52.73091213 550.4014082 52.77072048 C552.00508025 52.79502142 553.60892893 52.8099256 555.21277905 52.8143301 C559.02218795 52.86743068 561.99955204 52.97029778 565.23025036 55.11643887 C564.92255329 56.92976041 564.60895972 58.74208232 564.29275036 60.55393887 C564.11872692 61.5632748 563.94470348 62.57261074 563.76540661 63.61253262 C563.23025036 66.11643887 563.23025036 66.11643887 562.23025036 67.11643887 C552.00025036 67.11643887 541.77025036 67.11643887 531.23025036 67.11643887 C531.23025036 92.52643887 531.23025036 117.93643887 531.23025036 144.11643887 C539.11804889 138.85790651 546.21398681 133.40666623 553.23025036 127.11643887 C553.99474499 126.43218838 553.99474499 126.43218838 554.77468395 125.73411465 C571.28657285 110.7071659 583.54368156 91.19802102 591.60525036 70.49143887 C591.92727428 69.66925869 592.24929821 68.84707851 592.58108044 67.99998379 C597.95393229 53.52783268 599.52379673 38.02016033 601.60525036 22.81443691 C601.9704373 20.16231428 602.34939092 17.51244339 602.73025036 14.86253262 C602.88977184 13.65469364 602.88977184 13.65469364 603.05251598 12.42245388 C603.16273083 11.66718914 603.27294567 10.9119244 603.38650036 10.13377285 C603.47737926 9.47650707 603.56825817 8.81924129 603.66189098 8.14205837 C604.52285867 5.07358969 605.04736667 3.55464041 607.23025036 1.11643887 C610.91086214 0.32469665 614.58381702 0.46515719 618.33478832 0.51516628 C619.49299691 0.51089416 620.65120551 0.50662203 621.84451133 0.50222045 C625.06475136 0.49539433 628.28399163 0.51107191 631.50411332 0.53611076 C634.97444075 0.55766197 638.44471982 0.55039914 641.91509533 0.54659939 C647.92947208 0.54397499 653.94357806 0.5596896 659.9578867 0.58778858 C668.6535667 0.6283886 677.3491155 0.64144218 686.04488001 0.64772854 C700.15239869 0.65867725 714.25977299 0.69196701 728.36721325 0.7392416 C742.07293506 0.78512232 755.77861767 0.82052148 769.48440075 0.84178066 C770.75119812 0.84375109 770.75119812 0.84375109 772.04358735 0.84576132 C776.28026736 0.85228641 780.51694766 0.85860498 784.75362813 0.86482084 C819.91260515 0.91667179 855.07141445 1.00475269 890.23025036 1.11643887 C890.24238016 2.53381641 890.25095887 3.95122458 890.25808239 5.36863613 C890.26583187 6.55260731 890.26583187 6.55260731 890.27373791 7.76049709 C889.85878258 30.24073827 879.73798539 53.35329965 865.23025036 70.11643887 C864.62181286 70.92210293 864.01337536 71.72776699 863.38650036 72.55784512 C851.28815852 86.91366741 833.41184156 93.8706358 815.92165661 98.98753262 C812.45977815 99.73044462 812.45977815 99.73044462 811.23025036 101.11643887 C812.45131481 101.46424404 813.67237926 101.81204922 814.93044567 102.17039394 C819.46532676 103.46453593 823.99692122 104.76987355 828.52761364 106.07859707 C830.48799915 106.64317643 832.44925977 107.2047264 834.4114027 107.76316738 C837.23359143 108.56695531 840.05244104 109.38162883 842.87087536 110.19847012 C844.18514507 110.56897236 844.18514507 110.56897236 845.52596569 110.9469595 C853.55725662 113.2962289 853.55725662 113.2962289 856.23025036 116.11643887 C857.65564452 127.37026517 849.52173819 141.15947336 843.23025036 150.11643887 C827.75960605 169.42466912 807.99055029 181.42689148 783.4739027 184.78294277 C779.03943592 185.44208114 774.63670854 186.29324321 770.23025036 187.11643887 C771.04703259 187.5801791 771.86381481 188.04391933 772.70534801 188.5217123 C775.75909441 190.25692359 778.81169124 191.99412432 781.86355114 193.7326498 C783.18015879 194.48213815 784.49720886 195.23084989 785.81472301 195.97874355 C787.7174463 197.05901794 789.61851723 198.14215207 791.51931286 199.22581387 C793.23175182 200.19986172 793.23175182 200.19986172 794.97878551 201.1935873 C798.14927131 203.06854947 801.18690958 205.04454859 804.23025036 207.11643887 C802.39197523 219.91542942 789.9759842 231.62671489 780.15603161 239.17112637 C761.09670285 251.84341705 739.04820762 257.75367413 716.36648083 253.5817709 C710.18266383 252.23475887 704.19183104 250.21863825 698.23025036 248.11643887 C702.9273225 253.54015979 707.70536132 258.87518495 712.60525036 264.11643887 C713.25719372 264.81486904 713.90913708 265.51329922 714.5808363 266.23289394 C718.67375496 270.57692748 722.85601372 274.67301803 727.49587536 278.44065762 C729.61405071 280.48727298 730.94568837 282.46807242 732.23025036 285.11643887 C729.16637037 294.30807884 714.77299323 301.06295177 706.62087536 305.55393887 C688.14102884 314.73918802 665.85259958 314.29040018 646.58571911 307.90940762 C641.49820518 306.01943331 636.82988781 304.01437895 632.23025036 301.11643887 C636.72705489 310.44919241 641.43878876 319.50947176 646.99148083 328.26658535 C649.67595146 332.63614776 650.86329975 335.98580213 651.23025036 341.11643887 C630.65568882 351.64020885 608.34747944 356.58368647 585.66384411 349.45237637 C576.83350971 346.01668312 568.87043243 341.74046178 561.23025036 336.11643887 C562.80682371 345.87447239 564.66774022 355.35914788 567.46071911 364.84690762 C568.21818843 368.06519097 568.37510296 370.82478831 568.23025036 374.11643887 C552.65264344 381.17550739 531.75589596 378.71478487 516.23025036 373.11643887 C501.19247388 366.90235515 486.58745099 355.59353195 480.01931286 340.29612637 C479.75892223 339.57682949 479.49853161 338.85753262 479.23025036 338.11643887 C478.57025036 338.11643887 477.91025036 338.11643887 477.23025036 338.11643887 C476.98919567 338.64624355 476.74814098 339.17604824 476.49978161 339.72190762 C475.21091148 342.15291496 473.72393219 344.37446419 472.15798473 346.63401699 C467.13123695 353.90894804 462.60757059 361.43520407 458.23025036 369.11643887 C457.66652721 370.09524014 457.10280407 371.0740414 456.52199841 372.08250332 C452.44109212 379.25172897 452.44109212 379.25172897 450.23025036 387.11643887 C450.85559315 389.38639811 450.85559315 389.38639811 452.41775036 391.24143887 C452.98107067 391.99811855 453.54439098 392.75479824 454.12478161 393.53440762 C457.53093121 397.71152243 460.98629979 401.84112928 464.50368786 405.92503262 C467.47481121 409.38176113 470.30281066 412.94282691 473.12868786 416.51878262 C475.17574804 419.04907076 477.27851885 421.5194645 479.40090466 423.98631191 C492.23025036 438.91762864 492.23025036 438.91762864 492.23025036 443.11643887 C480.38384632 444.67109658 468.54585366 446.22359218 456.60525036 446.80393887 C455.87531872 446.83995205 455.14538708 446.87596523 454.3933363 446.91306973 C441.80863977 447.42789822 429.29165121 447.08558516 416.73025036 446.24143887 C415.44505505 446.16280605 414.15985973 446.08417324 412.83571911 446.00315762 C403.89495178 445.41908739 395.09226923 444.40525853 386.23025036 443.11643887 C387.69200281 439.23814076 389.14877201 436.85169296 392.04275036 433.86643887 C396.77269898 428.76566227 400.94812507 423.35225971 405.13186169 417.79930019 C409.54919472 411.95519497 414.12511681 406.26132037 418.82888317 400.64524746 C425.22453341 393.41603631 425.22453341 393.41603631 428.51443005 384.67478848 C428.18235535 381.68526035 427.31988578 379.929619 425.80837536 377.33518887 C425.01983166 375.96269985 425.01983166 375.96269985 424.21535778 374.56248379 C423.64277233 373.59028896 423.07018688 372.61809414 422.48025036 371.61643887 C421.90057507 370.61137295 421.32089977 369.60630703 420.72365856 368.57078457 C418.90171237 365.41391289 417.06635658 362.26509124 415.23025036 359.11643887 C413.49026664 356.11256281 411.75445036 353.10639795 410.02419567 350.09690762 C408.96731183 348.25940745 407.90558883 346.42468073 406.8386488 344.59300137 C406.363307 343.76929043 405.8879652 342.94557949 405.39821911 342.09690762 C404.97822643 341.37398525 404.55823376 340.65106289 404.12551403 339.90623379 C403.23025036 338.11643887 403.23025036 338.11643887 403.23025036 336.11643887 C402.57025036 336.11643887 401.91025036 336.11643887 401.23025036 336.11643887 C400.96341442 336.68104824 400.69657848 337.24565762 400.42165661 337.82737637 C390.68143172 356.54138221 374.5239131 369.1187716 355.04665661 376.28831387 C348.25796833 378.15983781 341.48082638 378.40352721 334.48025036 378.49143887 C333.60473522 378.50561855 332.72922009 378.51979824 331.82717419 378.53440762 C324.82431771 378.4814209 318.61054056 377.20899947 312.60525036 373.49143887 C309.37776094 367.91668442 312.85027891 359.14659686 314.40212536 353.24729824 C314.67540661 352.23473965 314.94868786 351.22218105 315.23025036 350.17893887 C315.50353161 349.13930996 315.77681286 348.09968105 316.05837536 347.02854824 C318.07764114 339.42165731 318.07764114 339.42165731 319.23025036 337.11643887 C318.23767223 337.70811855 317.24509411 338.29979824 316.22243786 338.90940762 C307.4561137 344.04427927 299.01753639 348.22639659 289.23025036 351.11643887 C288.0120863 351.48382168 288.0120863 351.48382168 286.76931286 351.85862637 C266.57488254 356.8900032 244.79097176 351.4951662 227.23025036 341.11643887 C226.23025036 338.11643887 226.23025036 338.11643887 227.41433239 335.44016933 C228.01616344 334.38201015 228.6179945 333.32385098 229.23806286 332.23362637 C229.56056011 331.65992306 229.88305737 331.08621975 230.21532726 330.49513149 C231.25253 328.65503772 232.30353653 326.8232701 233.35525036 324.99143887 C234.04108299 323.78103169 234.72598919 322.57009908 235.40993786 321.35862637 C236.73353803 319.01690902 238.06277398 316.67871648 239.39528942 314.3420248 C241.70406756 310.28353934 243.97506307 306.20489256 246.23025036 302.11643887 C245.29825817 302.51475918 244.36626598 302.91307949 243.40603161 303.32347012 C232.3687455 307.94735562 221.26555674 311.43519511 209.23025036 312.11643887 C207.93280895 312.19571621 207.93280895 312.19571621 206.60915661 312.27659512 C186.58099628 312.9016259 168.40258566 306.41907663 153.41775036 292.99143887 C152.64818005 292.30823574 151.87860973 291.62503262 151.08571911 290.92112637 C148.80708184 288.7048518 148.31058405 287.57163546 147.75759411 284.43821621 C148.46092779 279.49526265 151.27124651 277.32332006 154.79275036 273.96800137 C155.45863171 273.3106097 156.12451305 272.65321804 156.81057262 271.97590542 C158.93678253 269.88323283 161.08290783 267.81239941 163.23025036 265.74143887 C164.67692648 264.32486137 166.12225627 262.90690754 167.56618786 261.48753262 C171.10546145 258.01434828 174.66274042 254.56060405 178.23025036 251.11643887 C177.20109509 251.32502529 176.17193981 251.53361172 175.11159801 251.74851894 C173.74751533 252.02356399 172.38341958 252.2985443 171.01931286 252.57347012 C170.34263561 252.71079556 169.66595837 252.84812099 168.96877575 252.98960781 C146.67673566 257.47379482 124.6712242 255.3090123 105.13650036 243.19847012 C102.39922541 241.27238199 99.8092569 239.24884677 97.23025036 237.11643887 C96.4142738 236.47448574 95.59829723 235.83253262 94.75759411 235.17112637 C86.05567131 227.91722558 77.22841396 217.85053861 73.23025036 207.11643887 C73.80356091 206.78958096 74.37687145 206.46272305 74.96755505 206.12596035 C90.63874609 197.19020475 90.63874609 197.19020475 106.23025036 188.11643887 C104.5181266 186.4043151 102.21175058 186.57493698 99.91115856 186.2170248 C80.07030936 183.11641979 62.31082463 176.88565885 47.23025036 163.11643887 C46.46196911 162.44097012 45.69368786 161.76550137 44.90212536 161.06956387 C35.85796931 152.65786629 29.04780369 142.26249704 24.66775036 130.74143887 C24.42838757 130.1122958 24.18902477 129.48315273 23.94240856 128.83494473 C22.72420172 125.35506884 22.03563101 122.02340051 21.66408825 118.37571621 C21.5808279 117.57515804 21.49756756 116.77459988 21.41178417 115.94978237 C21.35187801 115.34477901 21.29197186 114.73977566 21.23025036 114.11643887 C21.80432125 113.95579449 22.37839214 113.79515011 22.96985912 113.62963772 C28.9239076 111.96279579 34.87664881 110.29134766 40.82863903 108.61717129 C43.05258796 107.99228018 45.27687182 107.3685798 47.50149059 106.74607754 C50.69190579 105.85310228 53.8811072 104.95590573 57.07009411 104.05784512 C58.57164295 103.63904835 58.57164295 103.63904835 60.10352612 103.21179104 C61.02440517 102.95159679 61.94528423 102.69140255 62.89406872 102.42332363 C64.11651539 102.08023914 64.11651539 102.08023914 65.36365795 101.73022366 C67.22259036 101.27437981 67.22259036 101.27437981 68.23025036 100.11643887 C66.97212536 99.77612637 65.71400036 99.43581387 64.41775036 99.08518887 C37.16664889 91.47157955 14.56229287 78.28421326 0.23025036 53.11643887 C-0.3485387 52.11097012 -0.92732777 51.10550137 -1.52365589 50.06956387 C-6.18763221 41.04552948 -7.78420895 31.54612115 -9.37033558 21.61350918 C-9.73452589 19.3366519 -10.12649272 17.06671402 -10.52756214 14.79612637 C-11.99294659 5.9110738 -11.99294659 5.9110738 -11.12131214 2.80784512 C-8.51622124 -0.45228309 -3.91794594 -0.00811225 0 0 Z M383.46853161 39.54222012 C381.01153357 41.79944356 381.01153357 41.79944356 381.23025036 44.11643887 C381.90491344 44.10072842 382.57957653 44.08501797 383.27468395 44.06883144 C386.3847846 44.00577808 389.49475007 43.96722756 392.60525036 43.92893887 C394.19659801 43.89123379 394.19659801 43.89123379 395.82009411 43.85276699 C410.98862527 43.71317928 421.98960366 49.26941231 433.23025036 59.11643887 C434.91092188 60.76898199 436.58125006 62.43229114 438.23025036 64.11643887 C438.7534486 63.74881435 439.27664684 63.38118984 439.81569958 63.00242519 C442.2407804 61.30433504 444.67292678 59.61663644 447.10525036 57.92893887 C447.92767223 57.35079433 448.75009411 56.7726498 449.59743786 56.17698574 C457.74036583 50.54691445 465.43521231 45.60640928 475.48025036 44.86643887 C476.19753307 44.79763515 476.91481579 44.72883144 477.65383434 44.65794277 C479.84474968 44.45444021 482.03611879 44.28130724 484.23025036 44.11643887 C484.93488415 44.06004238 485.63951794 44.0036459 486.36550426 43.94554043 C490.31830289 43.63065805 494.27213535 43.35480395 498.23025036 43.11643887 C488.98265265 28.23105132 472.76590069 21.3868711 456.51931286 16.87815762 C429.16912956 10.54408904 402.66727514 19.75618334 383.46853161 39.54222012 Z M620.23025036 16.11643887 C618.41466778 22.46085381 617.61201974 28.98866359 616.63405895 35.50681973 C612.25676345 64.07852267 602.56236055 90.7147181 585.23025036 114.11643887 C584.61295055 114.9706039 584.61295055 114.9706039 583.98318005 115.8420248 C570.88413806 133.87223209 554.6661402 148.33766796 535.88650036 160.22972012 C528.28203431 165.63112762 527.06913526 170.21765535 525.41775036 179.11643887 C524.90952163 181.64786688 524.40035813 184.17910734 523.89040661 186.71018887 C523.62056028 188.07988648 523.35120298 189.44968051 523.08230114 190.81956387 C515.29064072 230.32363392 504.81150593 268.64005988 489.4582777 305.91599941 C486.21312133 314.37340596 487.02257243 320.23908129 490.48342419 328.50120449 C496.43703439 341.63882655 505.59448179 351.37736229 518.23025036 358.11643887 C518.92763317 358.49800137 519.62501598 358.87956387 520.34353161 359.27268887 C529.90726927 364.02754149 540.96031834 366.53974954 551.23025036 363.11643887 C549.49648665 353.51564627 546.91212781 344.17334637 544.36306286 334.76487637 C543.88193641 332.97912528 543.40113802 331.19328578 542.92064953 329.40736294 C541.65907152 324.72094303 540.39390946 320.03549904 539.1277113 315.35032558 C537.10813938 307.87586693 535.09329149 300.40013593 533.07988644 292.92401409 C532.38347131 290.3405838 531.6850606 287.75769959 530.98638439 285.17488003 C528.91324116 277.49786481 526.86701202 269.81455725 524.90944958 262.10716152 C524.58451519 260.82975094 524.2595808 259.55234035 523.92479992 258.23622036 C523.23025036 255.11643887 523.23025036 255.11643887 523.23025036 252.11643887 C524.22025036 252.11643887 525.21025036 252.11643887 526.23025036 252.11643887 C526.50393444 252.84266445 526.77761852 253.56889004 527.05959606 254.31712246 C528.18560722 257.00968636 529.46941198 259.39990539 530.96071911 261.90550137 C531.50913464 262.83419033 532.05755016 263.7628793 532.62258434 264.71971035 C533.21498913 265.71688076 533.80739391 266.71405117 534.41775036 267.74143887 C538.45236233 274.57538334 542.43481832 281.42524694 546.24587536 288.38597012 C546.7398859 289.28632992 546.7398859 289.28632992 547.24387646 290.20487881 C548.83680295 293.11145199 550.41993593 296.02251026 551.99074841 298.9411459 C555.57535709 305.50211407 559.48354718 311.34790275 564.23025036 317.11643887 C564.97275036 318.12706387 565.71525036 319.13768887 566.48025036 320.17893887 C575.47981394 330.76666073 589.75595443 336.97845095 603.23025036 339.11643887 C611.77698885 339.80890491 619.2252088 339.21858162 627.23025036 336.11643887 C628.26150036 335.72456387 629.29275036 335.33268887 630.35525036 334.92893887 C631.28337536 334.52675137 631.28337536 334.52675137 632.23025036 334.11643887 C631.57618492 330.88523591 630.41040558 328.39649644 628.78103161 325.53831387 C628.01460339 324.18709438 628.01460339 324.18709438 627.23269176 322.80857754 C626.6750111 321.83767178 626.11733044 320.86676601 625.54275036 319.86643887 C624.67142467 318.33757046 624.67142467 318.33757046 623.78249645 316.77781582 C618.52499642 307.57542934 613.18133594 298.42338728 607.82790661 289.27659512 C602.86587559 280.79251095 597.96326389 272.27426305 593.05837536 263.75706387 C590.75535854 259.75834077 588.4472411 255.762673 586.13138866 251.77137661 C585.09908633 249.99212062 584.06773602 248.21231608 583.03664684 246.43235683 C581.74373336 244.2011431 580.44908007 241.97093627 579.1523695 239.74192715 C575.9894296 234.27791697 572.9773444 228.80149205 570.23025036 223.11643887 C574.92900411 224.54710519 577.76851636 227.27467276 581.09939098 230.72434902 C581.66445354 231.29700497 582.22951611 231.86966091 582.81170177 232.45967007 C584.03553615 233.70158167 585.25595184 234.94686949 586.47330761 236.19513226 C588.41010067 238.17968362 590.35711391 240.15366571 592.30727673 242.12507534 C597.84960985 247.7313987 603.37375259 253.35547899 608.88943005 258.9880209 C612.26893424 262.43766456 615.66104528 265.87451594 619.0606184 269.30437756 C620.34432276 270.60469136 621.6232118 271.90977964 622.89683056 273.21997356 C636.92657357 287.65042766 651.7103819 298.02629941 672.60525036 298.42893887 C686.81055218 298.48873668 700.54081128 294.73693404 711.23025036 285.11643887 C709.77746647 281.77973507 707.95233567 279.59123635 705.38317394 277.02885342 C704.58107998 276.22401012 703.77898602 275.41916683 702.95258617 274.58993435 C702.07145657 273.71599529 701.19032696 272.84205624 700.28249645 271.94163418 C698.89217457 270.55087421 698.89217457 270.55087421 697.47376537 269.13201809 C694.93503519 266.59271429 692.39018754 264.05962251 689.8441987 261.52759933 C687.18338809 258.87929449 684.52824328 256.22532166 681.87249279 253.57194424 C676.84394888 248.54961554 671.81032865 243.53240671 666.77486575 238.51701617 C661.0418429 232.80635102 655.31450066 227.09000319 649.58762908 221.37317038 C637.8081465 209.61459073 626.02154887 197.86316991 614.23025036 186.11643887 C614.89025036 185.45643887 615.55025036 184.79643887 616.23025036 184.11643887 C616.91200329 184.52257412 617.59375622 184.92870937 618.29616833 185.34715176 C632.02584728 193.52012517 645.78253429 201.63805084 659.64113903 209.59129238 C665.00259559 212.66970105 670.34944726 215.76864074 675.66775036 218.92112637 C697.55081099 231.88002778 719.66022688 244.87467878 746.04275036 238.61643887 C761.63576604 234.57240733 775.36077801 226.84981541 784.23025036 213.11643887 C780.94927754 210.39108789 777.67168103 208.08424175 773.96853161 205.97190762 C772.94566051 205.38538418 771.92278942 204.79886074 770.86892223 204.19456387 C769.77128551 203.57065762 768.6736488 202.94675137 767.54275036 202.30393887 C766.38038319 201.63902475 765.21827855 200.97365149 764.05642223 200.30784512 C761.64483576 198.92634757 759.23213692 197.54682321 756.81862926 196.16868496 C751.27854107 193.00305346 745.75528202 189.80824894 740.23025036 186.61643887 C738.06627759 185.36758545 735.90221478 184.11888805 733.73806286 182.87034512 C732.66588512 182.25175625 731.59370739 181.63316738 730.48903942 180.9958334 C727.2132547 179.10663721 723.93669143 177.21879778 720.65993786 175.33128262 C706.15533813 166.97384987 691.68066902 158.56719502 677.23025036 150.11643887 C699.11600988 154.1005114 720.55167049 159.6994034 742.05495739 165.35325527 C743.795509 165.81082966 743.795509 165.81082966 745.57122326 166.27764797 C747.77189475 166.85721732 749.97209509 167.43857956 752.17174816 168.02200222 C753.15978436 168.28302227 754.14782055 168.54404232 755.16579723 168.81297207 C756.02652843 169.04136272 756.88725964 169.26975338 757.7740736 169.50506496 C775.50907213 173.91953359 793.04325262 170.59818169 808.97634411 162.09690762 C820.59343195 155.0262431 829.22771402 145.73276303 836.29275036 134.24143887 C836.69961071 133.58643398 837.10647106 132.9314291 837.52566051 132.25657558 C838.51221906 130.59070471 839.38113741 128.85639022 840.23025036 127.11643887 C839.90025036 126.12643887 839.57025036 125.13643887 839.23025036 124.11643887 C836.59398422 123.00048537 836.59398422 123.00048537 833.27590466 122.19383144 C832.64921918 122.02371107 832.0225337 121.8535907 831.37685776 121.67831516 C829.27245285 121.11036379 827.16368033 120.56077989 825.05446911 120.01097012 C823.55887459 119.61131783 822.06357993 119.21054187 820.56856823 118.80871487 C817.36307641 117.94977074 814.15558062 117.09893434 810.94628429 116.25431728 C805.91581671 114.93035986 800.89028655 113.58831703 795.86526012 112.24388027 C781.78359386 108.48101114 767.69005755 104.76305571 753.59566307 101.04819679 C747.92928579 99.55462688 742.26398315 98.05702205 736.59924316 96.55725479 C733.31064765 95.68729931 730.02105597 94.82148778 726.72912121 93.9642477 C723.10141615 93.01900571 719.47621674 92.06466174 715.85134411 91.10862637 C714.77890453 90.83244976 713.70646496 90.55627316 712.60152721 90.27172756 C711.15402081 89.88717655 711.15402081 89.88717655 709.67727184 89.49485683 C708.83679806 89.27538387 707.99632427 89.05591091 707.13038158 88.82978725 C705.23025036 88.11643887 705.23025036 88.11643887 704.23025036 86.11643887 C705.53157909 86.11057262 706.83290783 86.10470638 708.17367077 86.09866238 C720.47275 86.04130321 732.77165466 85.96847289 745.07055569 85.88072395 C751.39265434 85.83610873 757.71468985 85.79683309 764.03689098 85.77000332 C770.14486954 85.74388215 776.25260399 85.70341744 782.36043072 85.6532526 C784.68383007 85.6366434 787.00727159 85.62509228 789.33072186 85.61882496 C804.02137189 85.57520971 817.01736153 85.40671801 830.29275036 78.42893887 C831.30716198 77.90566006 831.30716198 77.90566006 832.34206676 77.37180996 C853.86385861 65.98994569 866.90035354 48.89147542 874.23025036 26.11643887 C874.55509411 25.1148373 874.55509411 25.1148373 874.88650036 24.09300137 C875.40562523 21.10803334 875.24948658 18.13958633 875.23025036 15.11643887 C843.17800629 15.09364095 811.12576452 15.07593678 779.07351423 15.06537354 C775.29201936 15.06412278 771.5105245 15.06282847 767.72902966 15.06150723 C766.59975767 15.06111376 766.59975767 15.06111376 765.44767211 15.06071234 C753.24736089 15.05635749 741.04705436 15.04847095 728.84674593 15.03928607 C716.33410443 15.0299444 703.82146539 15.02438216 691.30882055 15.02235037 C683.58385746 15.02097621 675.85890766 15.01663139 668.13394866 15.0085224 C662.21687688 15.00262644 656.29981197 15.00198121 650.38273716 15.00333118 C647.95064747 15.00305506 645.51855731 15.00105253 643.0864706 14.99723339 C639.77693105 14.99228935 636.46744921 14.99344326 633.15790844 14.99618435 C632.18612799 14.99327151 631.21434755 14.99035867 630.21311921 14.98735756 C628.88743596 14.99034413 628.88743596 14.99034413 627.53497124 14.99339104 C626.77059421 14.99301132 626.00621719 14.9926316 625.21867722 14.99224037 C623.01923976 15.04429098 623.01923976 15.04429098 620.23025036 16.11643887 Z M3.23025036 16.11643887 C6.91253871 38.21016896 15.21916298 56.02029068 33.23415661 69.98753262 C48.78270522 81.03571905 64.9816808 86.19880383 84.02102184 86.32176113 C85.45632999 86.33661053 85.45632999 86.33661053 86.92063427 86.35175991 C90.06417957 86.38319316 93.20773996 86.40806007 96.35134411 86.43284512 C98.53852753 86.45343036 100.72570711 86.47442723 102.9128828 86.49581814 C108.6552166 86.55087666 114.39758534 86.60035718 120.13997936 86.64866543 C126.00538759 86.69899921 131.8707454 86.75462315 137.73610973 86.80979824 C149.23411349 86.9171813 160.73216111 87.01866998 172.23025036 87.11643887 C150.81641407 93.75304768 129.32370376 99.93617298 107.65432262 105.68089199 C104.12581277 106.61758509 100.59902736 107.56072444 97.07204723 108.50315762 C94.96318941 109.06607333 92.85428967 109.62883182 90.74538326 110.19156551 C89.36035096 110.56125576 87.97537359 110.93115186 86.59045315 111.30126095 C79.64418618 113.15729999 72.69595681 115.00298993 65.73193741 116.79145145 C62.93218104 117.5113345 60.13436396 118.23858896 57.33668613 118.96650219 C55.38151596 119.47179076 53.42349784 119.96601851 51.46543407 120.45997524 C50.29365108 120.76539242 49.1218681 121.07080959 47.91457653 121.38548183 C46.3709267 121.77991985 46.3709267 121.77991985 44.79609203 122.18232632 C42.193608 123.12977877 40.96968903 124.00154892 39.23025036 126.11643887 C40.52673641 133.4091729 44.7048934 138.40529319 49.23025036 144.11643887 C49.83997692 144.90534512 50.44970348 145.69425137 51.07790661 146.50706387 C62.62589969 160.53137819 80.37848996 168.97116294 98.23025036 171.11643887 C100.56100567 171.25416532 102.89563149 171.3357202 105.23025036 171.36643887 C106.38525036 171.39222012 107.54025036 171.41800137 108.73025036 171.44456387 C121.24052532 170.94215776 133.87335093 166.73748246 145.88259411 163.44847012 C147.52013611 163.00391909 149.15779821 162.55981023 150.79557323 162.11611843 C155.05285201 160.9615269 159.30850064 159.80103985 163.56380749 158.63920498 C167.92754131 157.44892838 172.29283205 156.26438986 176.65798473 155.07932949 C185.18358434 152.76389529 193.70746596 150.44221399 202.23025036 148.11643887 C199.21862357 151.22306247 196.41188066 153.35580614 192.62868786 155.47972012 C191.51203747 156.11152187 190.39538708 156.74332363 189.2448988 157.3942709 C188.65253429 157.72541897 188.06016979 158.05656704 187.44985485 158.3977499 C185.5715726 159.44776574 183.69775761 160.50537546 181.82497692 161.56516933 C179.23111608 163.03278744 176.63588736 164.49794158 174.03982067 165.96165371 C168.33206831 169.18472567 162.65559743 172.46168748 156.98025036 175.74143887 C155.37802624 176.66630093 155.37802624 176.66630093 153.74343395 177.60984707 C145.5884585 182.32121174 137.45234818 187.06451798 129.32107067 191.81663418 C117.6520971 198.6316254 105.94139648 205.37426248 94.23025036 212.11643887 C98.23189342 222.59120163 108.51749447 229.14820812 118.23025036 234.11643887 C135.37977517 241.52714018 153.65238406 242.59249487 171.23025036 236.11643887 C184.09342032 230.63513089 195.99987016 223.09848932 208.01540661 216.0060873 C213.35998175 212.86460708 218.73259263 209.77206625 224.10525036 206.67893887 C226.25629442 205.43935969 228.40733607 204.19977632 230.55837536 202.96018887 C232.17969372 202.02626308 232.17969372 202.02626308 233.83376598 201.07347012 C239.25471528 197.94995591 244.67361902 194.8228977 250.09261608 191.69599819 C252.88059795 190.08730205 255.66871051 188.47883244 258.45681286 186.87034512 C259.38058727 186.33739834 260.30436169 185.80445156 261.25612926 185.25535488 C261.90758923 184.8795126 262.55904919 184.50367031 263.23025036 184.11643887 C262.65773667 187.83848816 261.18718354 189.52027436 258.5346632 192.13241482 C257.7409129 192.92161816 256.94716259 193.7108215 256.12935925 194.52394009 C255.25241405 195.38067318 254.37546886 196.23740627 253.47194958 197.12010098 C252.06195086 198.51597852 250.65195538 199.91185934 249.24208188 201.30786335 C247.72594754 202.8063401 246.20622475 204.30109335 244.68553829 205.79494953 C241.51741627 208.908205 238.36234999 212.03446697 235.20952892 215.16320705 C226.24266108 224.05760673 217.25829729 232.93420996 208.26101208 241.79783535 C203.29120339 246.69404341 198.3321985 251.60093813 193.38458931 256.51957995 C190.25114496 259.63337319 187.10464965 262.73315116 183.9479053 265.82331169 C181.52985739 268.19797733 179.13138389 270.59210801 176.72976208 272.98338223 C175.84876842 273.83809109 174.96777477 274.69279995 174.06008434 275.57340908 C173.27197369 276.36543224 172.48386303 277.15745541 171.67187023 277.97347927 C170.97905893 278.65686336 170.28624763 279.34024744 169.57244205 280.04434013 C167.96348236 282.0779184 167.96348236 282.0779184 168.39649677 284.77161407 C170.05032193 289.42278474 175.01958504 291.05360956 179.23025036 293.11643887 C193.76652711 299.23290152 210.3797536 300.83371928 225.41384411 295.30393887 C226.34325817 294.91206387 227.27267223 294.52018887 228.23025036 294.11643887 C229.10810192 293.76581387 229.98595348 293.41518887 230.89040661 293.05393887 C240.54148754 288.75793993 247.58507767 280.92825733 254.83181286 273.45237637 C256.769238 271.56543787 258.73147046 269.8151792 260.78444958 268.06004238 C265.65603097 263.80929683 270.20556172 259.26699007 274.76150036 254.68284512 C275.63802258 253.80490795 276.51454479 252.92697079 277.41762829 252.02242947 C280.19087832 249.2436239 282.96061318 246.4613449 285.73025036 243.67893887 C287.62035841 241.78324022 289.51126554 239.88834104 291.40212536 237.99339199 C296.0141604 233.37038698 300.62332177 228.7445323 305.23025036 224.11643887 C305.89025036 224.44643887 306.55025036 224.77643887 307.23025036 225.11643887 C306.81887829 225.83372158 306.40750622 226.5510043 305.98366833 227.29002285 C304.02291906 230.71059805 302.06356426 234.13196901 300.10525036 237.55393887 C299.744333 238.18457241 299.38341564 238.81520596 299.01156139 239.46494961 C293.99298855 248.23809683 289.02375239 257.03667748 284.10525036 265.86643887 C279.01615769 274.99695466 273.79706478 284.04261445 268.503932 293.05613613 C263.47415302 301.64344252 258.59792085 310.31266309 253.75954723 319.00901699 C253.20976208 319.9970834 252.65997692 320.9851498 252.09353161 322.00315762 C251.61182507 322.87158291 251.13011852 323.7400082 250.63381481 324.63474941 C249.64520235 326.38274832 248.61329059 328.10660681 247.55129528 329.81101894 C246.0645245 331.96280701 246.0645245 331.96280701 246.23025036 334.11643887 C247.76861743 334.77009286 249.31113802 335.4139749 250.85525036 336.05393887 C251.71376598 336.4135873 252.57228161 336.77323574 253.45681286 337.14378262 C266.80067691 341.82353212 281.56925327 339.20187337 294.26931286 333.83128262 C309.630667 326.0640627 317.7190778 313.03164039 326.05471325 298.56382656 C327.88116433 295.39544541 329.72359461 292.23638928 331.56618786 289.07737637 C332.13457378 288.10236172 332.13457378 288.10236172 332.71444225 287.1076498 C336.9758082 279.81386041 341.34371343 272.58543208 345.73025036 265.36643887 C346.10309155 264.75149563 346.47593273 264.13655239 346.86007214 263.50297451 C353.05189924 253.29478998 353.05189924 253.29478998 354.23025036 252.11643887 C352.55356597 262.27247849 350.2375413 272.2801203 347.91775036 282.30393887 C347.70659588 283.22086514 347.4954414 284.1377914 347.2778883 285.08250332 C343.14834991 302.94307826 338.41575991 320.62123957 333.43410778 338.26170254 C333.16177319 339.23918957 332.88943859 340.2166766 332.60885143 341.22378445 C332.10411308 343.03484525 331.59191432 344.84385377 331.07015514 346.6500845 C329.36926712 352.78197868 328.62510574 358.77006684 328.23025036 365.11643887 C347.00585299 363.53094353 365.02697118 359.79980094 378.23025036 345.11643887 C384.67509465 336.73814129 393.10457489 324.37089991 391.93459606 313.3251791 C391.16361405 309.81286832 390.01120421 306.72609849 388.64040661 303.40159512 C388.10229426 302.07848076 387.56472032 300.75514733 387.02761364 299.43162441 C386.60322002 298.39345074 386.60322002 298.39345074 386.1702528 297.33430386 C374.07927198 267.63583748 365.13425128 237.36750784 358.71853161 205.93675137 C358.49805157 204.86047985 358.27757153 203.78420834 358.05041027 202.67532253 C356.94047268 197.24612869 355.84700151 191.81444982 354.78103161 186.37644863 C354.37507089 184.35612681 353.96883286 182.33586069 353.56228161 180.31565762 C353.38643032 179.39072506 353.21057903 178.4657925 353.02939892 177.51283169 C351.78341786 171.40102769 350.23320921 165.96376992 345.55788708 161.53074551 C345.01406384 161.19937588 344.47024059 160.86800625 343.90993786 160.52659512 C343.29739147 160.1393124 342.68484509 159.75202969 342.05373669 159.35301113 C341.4107362 158.96556728 340.76773571 158.57812344 340.10525036 158.17893887 C338.75023792 157.31772564 337.39737336 156.45312387 336.04665661 155.58518887 C335.39068493 155.16624355 334.73471325 154.74729824 334.05886364 154.31565762 C300.42529358 132.25850192 279.64725294 97.3674466 267.23025036 60.11643887 C264.26025036 45.59643887 261.29025036 31.07643887 258.23025036 16.11643887 C174.08025036 16.11643887 89.93025036 16.11643887 3.23025036 16.11643887 Z M463.18728161 62.89378262 C462.4795863 63.27663418 461.77189098 63.65948574 461.04275036 64.05393887 C460.32732067 64.4342123 459.61189098 64.81448574 458.87478161 65.20628262 C458.06073864 65.65680996 458.06073864 65.65680996 457.23025036 66.11643887 C460.08327235 67.41907398 460.08327235 67.41907398 462.27321911 66.33909512 C462.98091442 65.95624355 463.68860973 65.57339199 464.41775036 65.17893887 C465.13318005 64.79866543 465.84860973 64.41839199 466.58571911 64.02659512 C467.12841442 63.72624355 467.67110973 63.42589199 468.23025036 63.11643887 C465.37722837 61.81380376 465.37722837 61.81380376 463.18728161 62.89378262 Z M415.23025036 64.11643887 C417.2825872 66.36423636 418.23692297 67.11866307 421.23025036 68.11643887 C421.23025036 67.45643887 421.23025036 66.79643887 421.23025036 66.11643887 C419.25025036 65.45643887 417.27025036 64.79643887 415.23025036 64.11643887 Z M369.23025036 70.11643887 C367.4209364 72.30703499 367.4209364 72.30703499 366.04275036 74.92893887 C365.55419567 75.78100918 365.06564098 76.63307949 364.56228161 77.51097012 C359.93781686 86.5564774 359.4858793 94.39622809 362.23025036 104.11643887 C366.13937305 113.99585802 371.82842677 121.05736236 381.23025036 126.11643887 C391.63091304 130.41516477 400.70693977 129.64784633 411.23025036 126.11643887 C419.04246276 122.54999407 424.20629085 116.94830711 427.60525036 109.11643887 C429.10261066 104.89834304 430.14373671 101.6008264 429.23025036 97.11643887 C427.25721412 94.06548186 424.82699358 91.64274601 422.23025036 89.11643887 C421.17644176 88.01429043 421.17644176 88.01429043 420.10134411 86.88987637 C408.85311589 75.81294096 392.82799775 68.9917166 377.08181286 67.89768887 C373.96740176 68.13660259 371.9583353 68.5896283 369.23025036 70.11643887 Z M451.96462536 93.63597012 C450.0711476 96.34398448 449.38451621 97.82709287 449.23025036 101.11643887 C451.50230758 109.94468109 455.14430047 118.96536121 463.10525036 123.89768887 C472.68774252 128.87682695 481.67731266 130.80238031 492.29275036 127.99143887 C502.11902395 124.69030457 509.51281483 118.34721892 514.48025036 109.30393887 C518.68381219 100.14052583 519.59105585 89.90611545 516.25368786 80.30784512 C513.80061085 74.98229405 511.32046821 71.11068466 506.23025036 68.11643887 C484.76729592 66.90282678 465.83213971 78.21433778 451.96462536 93.63597012 Z M438.23025036 118.11643887 C434.99096557 131.84483629 434.99096557 140.38804144 438.23025036 154.11643887 C443.2670539 149.07963533 442.54168431 140.83078806 442.54323864 134.13938808 C442.42348382 128.41403147 441.36731085 123.4082077 439.23025036 118.11643887 C438.90025036 118.11643887 438.57025036 118.11643887 438.23025036 118.11643887 Z M458.23025036 138.11643887 C456.27791955 145.83656933 454.33630021 153.5600371 452.48025036 161.30393887 C452.23790661 162.30811855 451.99556286 163.31229824 451.74587536 164.34690762 C451.24992842 167.01074381 451.13146901 169.41476894 451.23025036 172.11643887 C468.97881966 169.77558425 484.98248354 161.14983546 497.23025036 148.11643887 C500.19086702 144.4654776 500.19086702 144.4654776 501.23025036 140.11643887 C500.6102113 140.26081387 499.99017223 140.40518887 499.35134411 140.55393887 C486.5601578 143.23506089 474.77892763 142.61123643 462.23025036 139.11643887 C460.89782881 138.77947937 459.56488496 138.44452327 458.23025036 138.11643887 Z M413.41775036 139.55393887 C400.78595542 142.99004889 389.00053559 141.85067513 376.23025036 140.11643887 C381.38478854 152.97210253 398.03061654 162.56677885 409.90212536 167.82737637 C415.75220878 170.09325375 421.91304492 172.11643887 428.23025036 172.11643887 C427.1538635 164.89331652 425.78589781 157.74961637 424.23025036 150.61643887 C424.06428356 149.83929531 423.89831676 149.06215176 423.72732067 148.2614584 C422.92098509 144.62977998 422.15632007 141.34948445 420.23025036 138.11643887 C417.73703985 138.11643887 415.80583754 138.8231772 413.41775036 139.55393887 Z M514.23025036 151.11643887 C513.10924878 152.36152077 511.99204377 153.61021734 510.89358044 154.87522793 C493.77985004 174.44560195 471.88365801 184.78672662 445.96462536 186.86253262 C420.08897737 188.49154608 395.29019799 180.29736817 375.82790661 163.16722012 C372.20727534 159.90632427 368.67598173 156.56217024 365.23025036 153.11643887 C364.66898599 170.51563422 368.27296893 187.21706033 372.23025036 204.05393887 C372.47323864 205.09902615 372.71622692 206.14411343 372.96657848 207.22087002 C385.57500911 261.35091196 403.65969383 313.88514609 432.79275036 361.55393887 C433.18631725 362.20499599 433.57988415 362.85605312 433.98537731 363.52683926 C436.08267432 366.83613063 437.67287054 368.54680141 441.23025036 370.11643887 C441.72670055 369.15326748 441.72670055 369.15326748 442.23318005 368.17063808 C443.81292302 365.10954632 445.39599246 362.0501965 446.98025036 358.99143887 C447.56645153 357.85940029 448.1526527 356.72736172 448.75661755 355.56101894 C451.59828089 350.09566509 454.46375489 344.64944957 457.44900036 339.26097012 C457.95979137 338.33880703 458.47058239 337.41664394 458.99685192 336.46653652 C459.9343405 334.78380932 460.87818954 333.104596 461.8308363 331.43040371 C470.84250833 315.25819372 477.24027964 298.14396068 483.04275036 280.61643887 C483.73324887 278.5521433 484.42450452 276.48810086 485.11648083 274.42430019 C486.50347584 270.28372282 487.88479925 266.14130995 489.2629652 261.99778652 C491.04778363 256.64398523 492.8760953 251.30610067 494.71853161 245.97190762 C500.60647597 228.86039047 505.68765121 211.89548306 509.23025036 194.11643887 C509.62087536 192.22841803 510.01150036 190.3403972 510.40212536 188.45237637 C514.19084249 169.93484973 514.19084249 169.93484973 515.23025036 151.11643887 C514.90025036 151.11643887 514.57025036 151.11643887 514.23025036 151.11643887 Z M438.23025036 399.11643887 C437.85328014 399.62916348 437.47630993 400.14188808 437.08791637 400.6701498 C435.32344197 403.06934076 433.55818345 405.46795326 431.79275036 407.86643887 C431.15837048 408.72866055 430.52399059 409.59088223 429.87038708 410.47923183 C425.52759298 416.37499059 421.14407882 422.23683132 416.70681286 428.06175137 C415.13298829 429.83008022 415.13298829 429.83008022 415.23025036 431.11643887 C431.07025036 431.11643887 446.91025036 431.11643887 463.23025036 431.11643887 C461.381312 427.41856214 459.26259229 424.39949621 456.73025036 421.17893887 C455.83284408 420.02810836 454.93571719 418.87705995 454.03884411 417.72581387 C453.5771986 417.13477871 453.11555309 416.54374355 452.63991833 415.93479824 C451.22949732 414.11546751 449.83849494 412.28285947 448.45290661 410.44456387 C448.00689098 409.85538174 447.56087536 409.26619961 447.10134411 408.65916348 C446.24513493 407.52708242 445.39213362 406.39256626 444.54275036 405.25535488 C442.56192408 402.64980018 440.9889479 400.95557056 438.23025036 399.11643887 Z " fill="#000000" transform="translate(519.7697496414185,221.88356113433838)"/>
<path d="M0 0 C7.22456262 -0.07001037 14.44905016 -0.12306696 21.67388535 -0.15543652 C25.02999244 -0.17098523 28.38568932 -0.19368193 31.74169922 -0.22631836 C35.61431901 -0.26301543 39.48661207 -0.27979832 43.359375 -0.29296875 C44.544245 -0.30845261 45.72911499 -0.32393646 46.94989014 -0.33988953 C57.45517126 -0.34197711 68.7876255 0.77468974 77 8 C80.5059619 11.80476547 81.26435656 15.45823147 81.4375 20.5625 C81.20108425 25.97051023 80.29639161 29.64690736 76.41796875 33.62109375 C73.11880543 36.61837285 70.21670652 38.46401756 66 40 C66.79664063 40.35191406 67.59328125 40.70382812 68.4140625 41.06640625 C76.18049401 44.68507202 81.00938564 47.9703304 85.375 55.3125 C87.02951343 62.42690773 86.61180452 69.56782223 83 76 C80.625 78.75 80.625 78.75 78 81 C77.278125 81.70125 76.55625 82.4025 75.8125 83.125 C67.44734346 88.70177103 57.95273307 88.40865182 48.2421875 88.29296875 C46.84400899 88.28736035 45.4458245 88.28309615 44.04763794 88.28010559 C40.40123677 88.26875445 36.7552049 88.23937382 33.10894775 88.20599365 C29.37476596 88.17508037 25.64052339 88.16155525 21.90625 88.14648438 C14.6039999 88.11449251 7.30205207 88.06341733 0 88 C0 86.35 0 84.7 0 83 C0.84884766 82.60167969 0.84884766 82.60167969 1.71484375 82.1953125 C2.44832031 81.84210938 3.18179688 81.48890625 3.9375 81.125 C4.66839844 80.77695312 5.39929688 80.42890625 6.15234375 80.0703125 C8.16332459 79.1315023 8.16332459 79.1315023 9 77 C9.11213492 74.92813729 9.15933295 72.85265181 9.17700195 70.77783203 C9.18983719 69.46952423 9.20267242 68.16121643 9.21589661 66.81326294 C9.22406327 65.37811663 9.23150714 63.94296606 9.23828125 62.5078125 C9.24235678 61.78649014 9.2464323 61.06516777 9.25063133 60.32198715 C9.27149017 56.50486283 9.28579322 52.68777446 9.29516602 48.87060547 C9.30623639 44.92711458 9.3406432 40.98418705 9.38033772 37.04089546 C9.40647455 34.00913438 9.41485513 30.97750822 9.41844749 27.94564438 C9.42332032 26.49196437 9.43495427 25.03829067 9.45348549 23.58472061 C9.47781203 21.55027077 9.47449853 19.51554727 9.4699707 17.48095703 C9.47583694 16.32338898 9.48170319 15.16582092 9.48774719 13.97317505 C8.8937032 10.35204346 7.85485108 9.22933389 5 7 C2.36777038 5.74563813 2.36777038 5.74563813 0 5 C0 3.35 0 1.7 0 0 Z M30 10 C29.69187139 13.76256903 29.72157857 17.53886644 29.6875 21.3125 C29.65849609 22.37146484 29.62949219 23.43042969 29.59960938 24.52148438 C29.59123047 25.54177734 29.58285156 26.56207031 29.57421875 27.61328125 C29.55963623 28.54954346 29.54505371 29.48580566 29.5300293 30.45043945 C30.14532487 33.78837797 31.33830376 34.95322195 34 37 C36.78597759 37.3756042 39.10497276 37.51628059 41.875 37.4375 C42.56980469 37.44458984 43.26460937 37.45167969 43.98046875 37.45898438 C48.70920083 37.40109971 51.97988686 36.4590797 56 34 C60.05977744 29.66023791 60.30490254 24.96856462 60.2109375 19.24609375 C59.89530216 15.88516185 58.92546073 13.75982705 57 11 C52.02597349 7.16585457 48.34042523 5.84299888 42.125 5.75 C41.09632813 5.72421875 40.06765625 5.6984375 39.0078125 5.671875 C35.31120932 6.0751408 32.64771279 7.35228721 30 10 Z M30 48 C29.41718386 51.23491284 29.41718386 51.23491284 29.5390625 54.84765625 C29.53997894 55.50076279 29.54089539 56.15386932 29.5418396 56.82676697 C29.54786353 58.20270081 29.56357368 59.57862228 29.58837891 60.9543457 C29.62494351 63.05924807 29.62939771 65.16239093 29.62890625 67.26757812 C29.38009779 74.49826437 29.38009779 74.49826437 32 81 C34.00801405 81.46387239 34.00801405 81.46387239 36.32421875 81.3984375 C37.18853516 81.40230469 38.05285156 81.40617188 38.94335938 81.41015625 C39.84892578 81.39855469 40.75449219 81.38695312 41.6875 81.375 C43.0168457 81.39240234 43.0168457 81.39240234 44.37304688 81.41015625 C50.01175062 81.38511389 54.02415602 80.69524882 59 78 C63.18109558 73.70590184 65.06890444 69.63595701 65.375 63.6875 C65.22224454 57.57728152 62.97450357 53.08733235 58.8125 48.6875 C50.78729632 43.87237779 36.61726467 39.40971776 30 48 Z " fill="#000000" transform="translate(738,728)"/>
<path d="M0 0 C8.69145362 8.00948647 13.99880926 18.66118567 14.7421875 30.43359375 C15.07047758 43.36822299 12.90420718 53.35160857 5.52734375 64.03125 C4.94984375 64.918125 4.37234375 65.805 3.77734375 66.71875 C-6.06535347 76.83485548 -18.85148471 81.96177807 -32.78515625 82.34375 C-45.24581223 82.11138345 -57.01850316 78.30363395 -66.47265625 70.03125 C-77.17901955 57.55046149 -80.44293697 45.27904171 -79.47265625 29.03125 C-77.26180206 15.64426675 -70.98320146 5.2379852 -60.01953125 -2.7578125 C-41.42115539 -14.63036061 -17.34194768 -13.80780668 0 0 Z M-52.22265625 6.04296875 C-59.7492442 18.01494771 -58.33821673 33.8784328 -55.5234375 47.078125 C-53.21465113 56.57108111 -48.26007556 66.04145965 -39.84765625 71.34375 C-34.62917376 74.33013821 -30.38477092 75.02859804 -24.47265625 74.03125 C-18.62436028 72.19649048 -14.87040262 67.98593837 -11.47265625 63.03125 C-10.10754858 60.09254548 -9.21401994 57.18056296 -8.47265625 54.03125 C-8.24578125 53.103125 -8.01890625 52.175 -7.78515625 51.21875 C-6.23094776 35.36582339 -8.18626837 18.42291935 -18.39453125 5.62109375 C-23.52574767 0.14182971 -27.84192466 -2.56533538 -35.41015625 -3.40625 C-42.51447581 -3.07645567 -47.90431251 0.56289667 -52.22265625 6.04296875 Z " fill="#000000" transform="translate(1167.47265625,735.96875)"/>
<path d="M0 0 C9.23997552 -0.02312524 18.47994114 -0.04091601 27.71993923 -0.05181217 C32.00999915 -0.05704061 36.30003933 -0.06413753 40.59008789 -0.07543945 C44.726794 -0.08626975 48.86348108 -0.09227714 53.00020027 -0.09487724 C54.58192304 -0.09673124 56.16364471 -0.10035136 57.74535942 -0.10573006 C59.95322838 -0.1129424 62.16101773 -0.11399086 64.36889648 -0.11352539 C65.62798325 -0.115746 66.88707001 -0.11796661 68.18431091 -0.12025452 C71 0 71 0 72 1 C72.29509061 2.40950688 72.53705963 3.83026105 72.75390625 5.25390625 C72.88603516 6.10791016 73.01816406 6.96191406 73.15429688 7.84179688 C73.28900391 8.73962891 73.42371094 9.63746094 73.5625 10.5625 C73.70107422 11.46419922 73.83964844 12.36589844 73.98242188 13.29492188 C74.32528051 15.52941433 74.66430023 17.7644227 75 20 C72.68359375 20.26953125 72.68359375 20.26953125 70 20 C68.41015625 18.13671875 68.41015625 18.13671875 67.0625 15.6875 C64.67172492 11.35901218 62.72418836 9.62813931 58 8 C53.92954841 7.57914854 49.901312 7.58111293 45.8125 7.625 C44.1737793 7.60759766 44.1737793 7.60759766 42.50195312 7.58984375 C41.45587891 7.59371094 40.40980469 7.59757813 39.33203125 7.6015625 C38.38046143 7.60494629 37.4288916 7.60833008 36.44848633 7.61181641 C33.99246775 7.83111598 33.99246775 7.83111598 32.19604492 9.17138672 C29.54447847 13.22532277 30.4895434 18.82067275 30.5 23.5 C30.45746094 25.23056641 30.45746094 25.23056641 30.4140625 26.99609375 C30.41148437 28.10082031 30.40890625 29.20554687 30.40625 30.34375 C30.39916016 31.35630859 30.39207031 32.36886719 30.38476562 33.41210938 C30.7664914 36.20032699 30.7664914 36.20032699 33.29882812 37.83081055 C36.88052176 39.38112967 40.17038822 39.4008213 44 39.3125 C44.69867187 39.31572266 45.39734375 39.31894531 46.1171875 39.32226562 C50.14157912 39.28050307 53.47521726 39.01323081 57 37 C58.21526985 35.31953843 58.21526985 35.31953843 58.8125 33.375 C59.204375 32.26125 59.59625 31.1475 60 30 C61.32 30 62.64 30 64 30 C64 38.91 64 47.82 64 57 C62.68 56.67 61.36 56.34 60 56 C59.525625 55.030625 59.05125 54.06125 58.5625 53.0625 C57.31852822 49.93089969 57.31852822 49.93089969 54.9375 48.828125 C51.05270808 47.7329443 47.45432775 47.6702604 43.4375 47.6875 C42.68275391 47.67138672 41.92800781 47.65527344 41.15039062 47.63867188 C38.0495362 47.63593984 35.56416491 47.70566661 32.78515625 49.15551758 C30.30281661 51.72035292 30.49770471 53.3460529 30.50390625 56.875 C30.50326172 58.02484375 30.50261719 59.1746875 30.50195312 60.359375 C30.53192383 62.16148437 30.53192383 62.16148437 30.5625 64 C30.55541016 65.20140625 30.54832031 66.4028125 30.54101562 67.640625 C30.28671007 73.49512707 30.28671007 73.49512707 32.1550293 78.84228516 C34.79805076 80.50077501 36.84686717 80.38862236 39.953125 80.3984375 C41.13003906 80.40230469 42.30695312 80.40617188 43.51953125 80.41015625 C44.75058594 80.39855469 45.98164062 80.38695312 47.25 80.375 C48.46558594 80.38660156 49.68117188 80.39820313 50.93359375 80.41015625 C59.89955478 80.38288943 59.89955478 80.38288943 68 77 C69.89565932 75.03629025 69.89565932 75.03629025 71.1875 72.8125 C72.54296875 70.64453125 72.54296875 70.64453125 74 69 C75.32 69 76.64 69 78 69 C77.54427083 71.01822917 77.08854167 73.03645833 76.6328125 75.0546875 C75.70782354 79.35988302 74.86358628 83.68206858 74 88 C49.58 88 25.16 88 0 88 C0 86.35 0 84.7 0 83 C0.84884766 82.60167969 0.84884766 82.60167969 1.71484375 82.1953125 C2.44832031 81.84210938 3.18179688 81.48890625 3.9375 81.125 C4.66839844 80.77695312 5.39929688 80.42890625 6.15234375 80.0703125 C8.16332459 79.1315023 8.16332459 79.1315023 9 77 C9.11213492 74.92813729 9.15933295 72.85265181 9.17700195 70.77783203 C9.18983719 69.46952423 9.20267242 68.16121643 9.21589661 66.81326294 C9.22406327 65.37811663 9.23150714 63.94296606 9.23828125 62.5078125 C9.24235678 61.78649014 9.2464323 61.06516777 9.25063133 60.32198715 C9.27149017 56.50486283 9.28579322 52.68777446 9.29516602 48.87060547 C9.30623639 44.92711458 9.3406432 40.98418705 9.38033772 37.04089546 C9.40647455 34.00913438 9.41485513 30.97750822 9.41844749 27.94564438 C9.42332032 26.49196437 9.43495427 25.03829067 9.45348549 23.58472061 C9.47781203 21.55027077 9.47449853 19.51554727 9.4699707 17.48095703 C9.47583694 16.32338898 9.48170319 15.16582092 9.48774719 13.97317505 C8.8937032 10.35204346 7.85485108 9.22933389 5 7 C2.36777038 5.74563813 2.36777038 5.74563813 0 5 C0 3.35 0 1.7 0 0 Z " fill="#000000" transform="translate(832,728)"/>
<path d="M0 0 C12.87 0 25.74 0 39 0 C39 1.65 39 3.3 39 5 C37.865625 5.45375 36.73125 5.9075 35.5625 6.375 C31.95278308 7.57095806 31.95278308 7.57095806 31 10 C30.89271818 12.17445004 30.85109868 14.35223629 30.83886719 16.52929688 C30.83390228 17.19937271 30.82893738 17.86944855 30.82382202 18.55982971 C30.80919976 20.77948018 30.80239942 22.99905926 30.796875 25.21875 C30.79112494 26.75809736 30.78536719 28.29744469 30.77960205 29.83679199 C30.76909281 33.06486343 30.7632492 36.29290995 30.75976562 39.52099609 C30.75427172 43.66411172 30.73022462 47.80690022 30.70179367 51.94991302 C30.68320475 55.12913997 30.67796378 58.30828738 30.67642975 61.48756409 C30.67339572 63.01544489 30.66534204 64.54332405 30.65224457 66.07115173 C30.63525651 68.20459205 30.63704553 70.33722329 30.64355469 72.47070312 C30.63990906 73.68600708 30.63626343 74.90131104 30.63250732 76.15344238 C30.8144162 77.5624884 30.8144162 77.5624884 31 79 C34.85046908 81.56697939 38.03830578 81.30234059 42.5 81.25 C43.30719482 81.24395752 44.11438965 81.23791504 44.94604492 81.23168945 C57.28822714 81.20486071 57.28822714 81.20486071 68 76 C69.54461864 73.66017338 71.0023278 71.30835361 72.375 68.86328125 C74 67 74 67 76.6875 66.73046875 C77.8321875 66.86388672 77.8321875 66.86388672 79 67 C77.99225224 74.05423435 76.49307344 81.03232395 75 88 C50.25 88 25.5 88 0 88 C0 86.35 0 84.7 0 83 C1.7015625 82.319375 1.7015625 82.319375 3.4375 81.625 C7.04721692 80.42904194 7.04721692 80.42904194 8 78 C8.09195619 75.78397356 8.11750018 73.56509793 8.11352539 71.34716797 C8.11367142 70.66412598 8.11381744 69.98108398 8.1139679 69.27734375 C8.11327023 67.0155929 8.10548465 64.753924 8.09765625 62.4921875 C8.09579155 60.92562912 8.09436789 59.35907016 8.09336853 57.79251099 C8.08954743 53.66610102 8.0797206 49.53972616 8.06866455 45.41333008 C8.0584417 41.20394363 8.05386903 36.99455153 8.04882812 32.78515625 C8.03809798 24.52342138 8.02102642 16.26171505 8 8 C6.865625 7.690625 5.73125 7.38125 4.5625 7.0625 C1 6 1 6 0 5 C0 3.35 0 1.7 0 0 Z " fill="#000000" transform="translate(917,728)"/>
<path d="M0 0 C13.2 0 26.4 0 40 0 C40 1.65 40 3.3 40 5 C39.43410156 5.26554688 38.86820313 5.53109375 38.28515625 5.8046875 C37.18494141 6.33449219 37.18494141 6.33449219 36.0625 6.875 C35.33160156 7.22304688 34.60070313 7.57109375 33.84765625 7.9296875 C31.83667541 8.8684977 31.83667541 8.8684977 31 11 C30.88786508 13.07186271 30.84066705 15.14734819 30.82299805 17.22216797 C30.81016281 18.53047577 30.79732758 19.83878357 30.78410339 21.18673706 C30.77593673 22.62188337 30.76849286 24.05703394 30.76171875 25.4921875 C30.75764322 26.21350986 30.7535677 26.93483223 30.74936867 27.67801285 C30.72850983 31.49513717 30.71420678 35.31222554 30.70483398 39.12939453 C30.69376361 43.07288542 30.6593568 47.01581295 30.61966228 50.95910454 C30.59352545 53.99086562 30.58514487 57.02249178 30.58155251 60.05435562 C30.57667968 61.50803563 30.56504573 62.96170933 30.54651451 64.41527939 C30.52218797 66.44972923 30.52550147 68.48445273 30.5300293 70.51904297 C30.52416306 71.67661102 30.51829681 72.83417908 30.51225281 74.02682495 C31.10888545 77.66373628 32.05225531 78.84101353 35 81 C37.99973726 81.35081169 40.57737652 81.47501702 43.5625 81.375 C44.3659082 81.35848389 45.16931641 81.34196777 45.99707031 81.32495117 C57.30494052 81.25699909 57.30494052 81.25699909 67.375 76.8125 C69.87446527 74.1345015 71.79322029 71.50908309 73.62890625 68.35546875 C75 67 75 67 77.65234375 66.80078125 C78.42707031 66.86652344 79.20179687 66.93226563 80 67 C79.81824219 67.89138672 79.81824219 67.89138672 79.6328125 68.80078125 C79.46523437 69.62964844 79.29765625 70.45851563 79.125 71.3125 C78.96257812 72.11300781 78.80015625 72.91351562 78.6328125 73.73828125 C77.71208169 78.48402339 76.86477398 83.2437431 76 88 C50.92 88 25.84 88 0 88 C0 86.35 0 84.7 0 83 C1.670625 82.319375 1.670625 82.319375 3.375 81.625 C6.96199008 80.27534014 6.96199008 80.27534014 9 78 C9.32175418 75.06664821 9.32175418 75.06664821 9.29052734 71.57836914 C9.29724457 70.91965317 9.30396179 70.26093719 9.31088257 69.58226013 C9.32991579 67.39981593 9.33378931 65.21767834 9.3359375 63.03515625 C9.34236156 61.52062349 9.34908962 60.006092 9.35610962 58.49156189 C9.36809555 55.3147392 9.37178908 52.13802536 9.37060547 48.96118164 C9.37040216 44.88752276 9.39771015 40.81456059 9.43214989 36.74106693 C9.45437172 33.61238897 9.45844448 30.48387996 9.45738602 27.35513115 C9.45974889 25.85319046 9.46861093 24.35124559 9.48405075 22.8493824 C9.50361796 20.74943172 9.49791151 18.6509998 9.48583984 16.55102539 C9.48868988 15.35570694 9.49153992 14.16038849 9.49447632 12.92884827 C9.27978225 9.91859847 9.27978225 9.91859847 7.14151001 8.16477966 C4.81726013 6.90060673 2.48768043 5.89832905 0 5 C0 3.35 0 1.7 0 0 Z " fill="#000000" transform="translate(1002,728)"/>
</svg>
