<?xml version="1.0" encoding="UTF-8"?>
<svg version="1.1" xmlns="http://www.w3.org/2000/svg" width="1080" height="1350">
<path d="M0 0 C1.85173325 0.00848969 1.85173325 0.00848969 3.74087524 0.01715088 C7.67400292 0.03949625 11.60621131 0.08969253 15.5390625 0.140625 C18.2096221 0.16294841 20.88017305 0.17894246 23.55078125 0.1953125 C30.08885399 0.23935528 36.62639256 0.30625069 43.1640625 0.390625 C42.57215293 3.43294291 41.93065526 6.32383818 40.89453125 9.24609375 C40.64727295 9.94669922 40.40001465 10.64730469 40.14526367 11.36914062 C39.88334229 12.09810547 39.6214209 12.82707031 39.3515625 13.578125 C39.08384033 14.32900391 38.81611816 15.07988281 38.5402832 15.85351562 C32.85325685 31.70143065 32.85325685 31.70143065 31.1640625 33.390625 C29.60233505 33.47748103 28.03676906 33.49764719 26.47265625 33.48828125 C25.52841797 33.48505859 24.58417969 33.48183594 23.61132812 33.47851562 C22.61810547 33.47013672 21.62488281 33.46175781 20.6015625 33.453125 C19.60447266 33.44861328 18.60738281 33.44410156 17.58007812 33.43945312 C15.10804763 33.42762523 12.63604778 33.40968915 10.1640625 33.390625 C10.1640625 38.340625 10.1640625 43.290625 10.1640625 48.390625 C15.93013642 48.29703473 21.69579322 48.19092784 27.46142578 48.07324219 C29.4226247 48.03497173 31.38389334 48.00011546 33.34521484 47.96875 C36.16529247 47.9230576 38.98489088 47.86507 41.8046875 47.8046875 C43.11895721 47.78736069 43.11895721 47.78736069 44.45977783 47.76968384 C45.28032654 47.74981415 46.10087524 47.72994446 46.94628906 47.70947266 C47.66576721 47.69614899 48.38524536 47.68282532 49.12652588 47.6690979 C51.54733018 47.33824328 53.13236638 46.75200813 55.1640625 45.390625 C55.90846223 41.9787929 56.1640625 38.87667814 56.1640625 35.390625 C52.69694139 34.23491796 49.6225669 34.06227207 45.9765625 33.828125 C44.70425781 33.74433594 43.43195313 33.66054688 42.12109375 33.57421875 C41.14527344 33.51363281 40.16945313 33.45304688 39.1640625 33.390625 C40.56262952 26.29527714 42.69907667 19.72172301 45.2265625 12.953125 C45.59072266 11.96119141 45.95488281 10.96925781 46.33007812 9.94726562 C48.98403003 2.75068994 48.98403003 2.75068994 50.1640625 0.390625 C58.26540468 -0.55139153 66.4958021 2.94511807 73.1640625 7.390625 C73.1640625 8.050625 73.1640625 8.710625 73.1640625 9.390625 C73.7209375 9.57625 74.2778125 9.761875 74.8515625 9.953125 C80.42470791 13.41751269 83.28035823 19.76743748 84.7890625 25.953125 C85.93838143 36.4885485 85.71676068 46.55872746 79.1640625 55.390625 C78.5040625 55.390625 77.8440625 55.390625 77.1640625 55.390625 C77.1640625 56.050625 77.1640625 56.710625 77.1640625 57.390625 C75.20258376 58.78000577 73.20239674 60.1166661 71.1640625 61.390625 C72.84509115 62.51131076 74.53422852 63.62076567 76.25 64.6875 C83.60315063 69.35537037 88.39258601 73.88056561 90.66015625 82.484375 C92.55119279 93.39081828 91.61052083 105.09004972 85.6328125 114.66796875 C77.0535255 124.73037718 64.85975307 128.37870316 52.1640625 129.390625 C48.51581237 129.51330008 44.87262612 129.50790999 41.22265625 129.48828125 C40.21437271 129.4868663 39.20608917 129.48545135 38.16725159 129.48399353 C34.97865708 129.47844105 31.79013542 129.46589761 28.6015625 129.453125 C26.42643331 129.44810385 24.25130301 129.44354202 22.07617188 129.43945312 C16.77211099 129.42848723 11.46809195 129.41179714 6.1640625 129.390625 C6.86061528 125.64317886 7.85910914 122.53837353 9.4765625 119.078125 C9.88519531 118.19511719 10.29382813 117.31210937 10.71484375 116.40234375 C12.4909749 112.71124639 14.32185965 109.0491004 16.1640625 105.390625 C17.19813232 105.3812793 18.23220215 105.37193359 19.29760742 105.36230469 C23.14651026 105.32233079 26.99461996 105.25655251 30.84301758 105.18310547 C32.50632513 105.15493851 34.16976546 105.13370267 35.83325195 105.11962891 C38.22936775 105.09813908 40.62389434 105.05146212 43.01953125 105 C44.12919502 104.99815704 44.12919502 104.99815704 45.26127625 104.99627686 C50.17157659 104.85802517 52.69634775 103.86201534 56.1640625 100.390625 C58.68201038 96.91345889 58.46330888 93.58007431 58.1640625 89.390625 C57.3120455 86.60220573 56.45836246 85.62379141 54.1730957 83.81323242 C49.98947008 81.83530248 46.28221781 81.91247051 41.70703125 81.87890625 C40.80406815 81.86095505 39.90110504 81.84300385 38.97077942 81.82450867 C36.09775406 81.77049479 33.22489399 81.73653863 30.3515625 81.703125 C28.39906559 81.66994404 26.44659046 81.63545366 24.49414062 81.59960938 C19.71756734 81.5147734 14.94104232 81.44791964 10.1640625 81.390625 C10.1954834 82.12063721 10.2269043 82.85064941 10.25927734 83.6027832 C10.38540962 86.96923761 10.46247715 90.33519323 10.5390625 93.703125 C10.58933594 94.85103516 10.63960938 95.99894531 10.69140625 97.18164062 C10.84047804 105.95203099 8.75896519 111.08055254 4.1640625 118.390625 C2.1840625 122.020625 0.2040625 125.650625 -1.8359375 129.390625 C-10.4159375 129.390625 -18.9959375 129.390625 -27.8359375 129.390625 C-27.92639607 115.07346894 -27.99974482 100.75650347 -28.04318619 86.43912601 C-28.06403851 79.79059312 -28.09231357 73.14232111 -28.13769531 66.49389648 C-28.1812361 60.0748181 -28.20509236 53.65593764 -28.21544647 47.23672295 C-28.22282297 44.7907646 -28.23722751 42.34481678 -28.25885773 39.89894295 C-28.28800009 36.46632819 -28.29188883 33.0345257 -28.29003906 29.60180664 C-28.30442017 28.59623215 -28.31880127 27.59065765 -28.33361816 26.55461121 C-28.28808332 18.71786439 -26.56764124 12.62553732 -21.4609375 6.578125 C-20.5946875 5.85625 -19.7284375 5.134375 -18.8359375 4.390625 C-18.05653809 3.69356445 -17.27713867 2.99650391 -16.47412109 2.27832031 C-11.57107056 -0.92590471 -5.62929871 -0.09733767 0 0 Z " fill="#1E3D69" transform="translate(317.8359375,662.609375)"/>
<path d="M0 0 C0 0.99 0 1.98 0 3 C-1.32837891 2.41992188 -1.32837891 2.41992188 -2.68359375 1.828125 C-15.16098192 -3.47352866 -28.3539624 -7.53545404 -42 -8 C-43.96646484 -8.07734375 -43.96646484 -8.07734375 -45.97265625 -8.15625 C-60.72349622 -8.54417372 -74.90474209 -6.36693573 -89 -2 C-89.90234375 -1.76023437 -90.8046875 -1.52046875 -91.734375 -1.2734375 C-105.80398942 2.79534289 -120.00952717 11.6735475 -130.13671875 22.2265625 C-132 24 -132 24 -134 24 C-134 24.66 -134 25.32 -134 26 C-134.66 26 -135.32 26 -136 26 C-136.66 27.32 -137.32 28.64 -138 30 C-138.66 30 -139.32 30 -140 30 C-140.26296875 30.56332031 -140.5259375 31.12664063 -140.796875 31.70703125 C-142.10452834 34.19921472 -143.61327022 36.39829011 -145.25 38.6875 C-145.87390625 39.57824219 -146.4978125 40.46898437 -147.140625 41.38671875 C-148.25184258 42.94849303 -149.38134161 44.49786265 -150.546875 46.01953125 C-165.19176547 65.97909971 -168.60286587 94.77552547 -165.25 118.75 C-164.86322893 120.83909 -164.44586772 122.92272032 -164 125 C-163.76667969 126.14210938 -163.53335938 127.28421875 -163.29296875 128.4609375 C-161.52102163 136.05037312 -158.91941902 142.89302893 -155.625 149.9375 C-155.26204834 150.71818848 -154.89909668 151.49887695 -154.52514648 152.30322266 C-152.19547817 157.09770154 -149.50120659 161.22582925 -146.14990234 165.37329102 C-145 167 -145 167 -145 169 C-144.34 169 -143.68 169 -143 169 C-141.625 170.65234375 -141.625 170.65234375 -140 172.9375 C-135.76295666 178.56607757 -130.39450106 184.80274947 -124 188 C-124 188.66 -124 189.32 -124 190 C-123.23816406 190.36351562 -123.23816406 190.36351562 -122.4609375 190.734375 C-119.81335809 192.09598727 -117.24723522 193.57890603 -114.671875 195.0715332 C-101.62969648 202.58043059 -88.73766877 207.88788314 -74 211 C-72.45119141 211.3403125 -72.45119141 211.3403125 -70.87109375 211.6875 C-55.02601732 214.6623253 -38.59488112 213.78858694 -23 210 C-22.05511719 209.79503906 -21.11023438 209.59007812 -20.13671875 209.37890625 C-6.45931234 206.11659154 6.04308149 199.19283379 18 192 C18 192.99 18 193.98 18 195 C16.03601816 196.72769028 14.13856036 198.20291015 12 199.6875 C11.37496582 200.12666748 10.74993164 200.56583496 10.10595703 201.01831055 C3.12093519 205.79339662 -4.31124982 209.50493053 -12 213 C-13.63001953 213.7425 -13.63001953 213.7425 -15.29296875 214.5 C-21.71092999 217.28969596 -28.16415917 219.48965458 -35 221 C-35.72010254 221.16991455 -36.44020508 221.3398291 -37.18212891 221.51489258 C-45.08932815 223.19346989 -52.91525895 223.33889317 -60.95947266 223.31567383 C-63.23258975 223.31252412 -65.50438738 223.33601845 -67.77734375 223.36132812 C-95.0300599 223.47826561 -120.03136817 213.69604771 -142 198 C-142.99 197.34 -143.98 196.68 -145 196 C-145 195.34 -145 194.68 -145 194 C-145.89404541 193.58947388 -145.89404541 193.58947388 -146.80615234 193.1706543 C-165.93948354 182.96095887 -178.38009228 155.99042577 -184.7109375 136.5546875 C-193.22131831 108.14958824 -190.04048573 76.24024912 -176.484375 49.9765625 C-171.06759969 40.01209205 -164.74019403 31.26820726 -157 23 C-156.28199219 22.22527344 -155.56398438 21.45054687 -154.82421875 20.65234375 C-153.27689253 19.04094605 -151.64826802 17.50798989 -150 16 C-149.34 16 -148.68 16 -148 16 C-148 15.34 -148 14.68 -148 14 C-106.23256412 -21.56615719 -47.8490602 -24.70842689 0 0 Z " fill="#1D3C69" transform="translate(412,622)"/>
<path d="M0 0 C16.40641225 13.99125511 28.89089303 33.34721845 34.04882812 54.390625 C34.17382812 57.328125 34.17382812 57.328125 34.04882812 59.390625 C35.87220703 59.37322266 35.87220703 59.37322266 37.73242188 59.35546875 C39.31705576 59.34609222 40.9016913 59.33699187 42.48632812 59.328125 C43.28876953 59.31974609 44.09121094 59.31136719 44.91796875 59.30273438 C46.96178033 59.2941107 49.00566714 59.3383435 51.04882812 59.390625 C52.04882812 60.390625 52.04882812 60.390625 52.14648438 62.89453125 C52.11393229 65.7265625 52.08138021 68.55859375 52.04882812 71.390625 C45.44882812 71.390625 38.84882813 71.390625 32.04882812 71.390625 C32.04882812 73.370625 32.04882812 75.350625 32.04882812 77.390625 C33.87220703 77.37322266 33.87220703 77.37322266 35.73242188 77.35546875 C37.31705576 77.34609222 38.9016913 77.33699187 40.48632812 77.328125 C41.28876953 77.31974609 42.09121094 77.31136719 42.91796875 77.30273438 C44.96178033 77.2941107 47.00566714 77.3383435 49.04882812 77.390625 C50.04882812 78.390625 50.04882812 78.390625 50.14648438 80.89453125 C50.11393229 83.7265625 50.08138021 86.55859375 50.04882812 89.390625 C44.10882813 89.390625 38.16882813 89.390625 32.04882812 89.390625 C32.04882812 94.010625 32.04882812 98.630625 32.04882812 103.390625 C32.70882812 103.390625 33.36882812 103.390625 34.04882812 103.390625 C33.0335493 116.58924967 27.07807184 127.85896469 21.04882812 139.390625 C20.38882813 139.390625 19.72882813 139.390625 19.04882812 139.390625 C18.79488281 140.11507812 18.5409375 140.83953125 18.27929688 141.5859375 C15.03428543 148.98250327 8.30242634 156.28633673 2.04882812 161.390625 C1.38882813 161.390625 0.72882813 161.390625 0.04882812 161.390625 C0.04882812 162.050625 0.04882812 162.710625 0.04882812 163.390625 C-1.27117187 163.720625 -2.59117187 164.050625 -3.95117188 164.390625 C-3.95117188 165.050625 -3.95117188 165.710625 -3.95117188 166.390625 C-6.19461951 167.93167068 -8.41778412 169.33368388 -10.76367188 170.703125 C-11.45001709 171.10684326 -12.1363623 171.51056152 -12.84350586 171.92651367 C-36.58251857 185.70339665 -63.2771542 190.02831785 -89.95117188 183.390625 C-99.97606402 180.67367635 -109.40227655 177.44788249 -117.95117188 171.390625 C-113.75240133 169.99103482 -110.95698903 171.6769844 -107.01367188 173.203125 C-84.07783129 181.5630293 -59.46949412 180.84255525 -37.26367188 170.703125 C-29.15021449 166.81077693 -20.56543328 162.09884196 -14.22460938 155.62890625 C-12.95117188 154.390625 -12.95117188 154.390625 -10.95117188 154.390625 C-10.95117188 153.730625 -10.95117188 153.070625 -10.95117188 152.390625 C-10.29117188 152.390625 -9.63117188 152.390625 -8.95117188 152.390625 C-8.95117188 151.730625 -8.95117188 151.070625 -8.95117188 150.390625 C-8.29117188 150.390625 -7.63117188 150.390625 -6.95117188 150.390625 C-6.95117188 149.730625 -6.95117188 149.070625 -6.95117188 148.390625 C-6.29117188 148.390625 -5.63117188 148.390625 -4.95117188 148.390625 C-4.55478516 147.53597656 -4.55478516 147.53597656 -4.15039062 146.6640625 C-2.87741734 144.25080369 -1.39424686 142.20216263 0.23632812 140.015625 C12.57909321 122.55575522 16.28472404 105.93646124 16.45385742 85.12792969 C16.47527299 83.15769751 16.50917567 81.18755608 16.55639648 79.21777344 C17.17995925 52.88167769 8.60358816 33.42807447 -9.20507812 13.921875 C-14.02395114 8.89348577 -19.00348234 4.98422094 -24.95117188 1.390625 C-25.82128906 0.82601562 -26.69140625 0.26140625 -27.58789062 -0.3203125 C-48.31486752 -13.27113844 -74.12648878 -17.03424415 -97.95117188 -11.609375 C-108.82588648 -8.35645819 -118.94218087 -3.92670902 -128.25976562 2.5703125 C-129.95117188 3.390625 -129.95117188 3.390625 -132.95117188 2.390625 C-132.29117187 2.390625 -131.63117188 2.390625 -130.95117188 2.390625 C-130.95117188 1.730625 -130.95117188 1.070625 -130.95117188 0.390625 C-93.55616938 -30.96491913 -37.5664526 -30.63744589 0 0 Z " fill="#D1B537" transform="translate(426.951171875,642.609375)"/>
<path d="M0 0 C16.40641225 13.99125511 28.89089303 33.34721845 34.04882812 54.390625 C34.04882812 56.040625 34.04882812 57.690625 34.04882812 59.390625 C28.10882813 59.390625 22.16882813 59.390625 16.04882812 59.390625 C15.22382813 56.709375 14.39882813 54.028125 13.54882812 51.265625 C6.91004342 30.85696068 -6.44502165 12.57204695 -24.95117188 1.390625 C-25.82128906 0.82601562 -26.69140625 0.26140625 -27.58789062 -0.3203125 C-48.31486752 -13.27113844 -74.12648878 -17.03424415 -97.95117188 -11.609375 C-108.82588648 -8.35645819 -118.94218087 -3.92670902 -128.25976562 2.5703125 C-129.95117188 3.390625 -129.95117188 3.390625 -132.95117188 2.390625 C-132.29117187 2.390625 -131.63117188 2.390625 -130.95117188 2.390625 C-130.95117188 1.730625 -130.95117188 1.070625 -130.95117188 0.390625 C-93.55616938 -30.96491913 -37.5664526 -30.63744589 0 0 Z " fill="#D1B537" transform="translate(426.951171875,642.609375)"/>
<path d="M0 0 C1.25554688 -0.02900391 2.51109375 -0.05800781 3.8046875 -0.08789062 C11.14816914 -0.13792483 17.21367118 0.24747577 23.5 4.3125 C25.85737282 6.73920732 26.47451745 8.12756123 26.546875 11.4921875 C26.23129465 15.86727865 25.71770012 19.09479988 22.5 22.3125 C23.49 22.6425 24.48 22.9725 25.5 23.3125 C25.5 23.9725 25.5 24.6325 25.5 25.3125 C26.16 25.3125 26.82 25.3125 27.5 25.3125 C28.40446664 30.28706653 29.06129813 34.02619178 27 38.75 C23.08864935 42.75913441 19.22680714 44.15492193 13.76782227 44.65307617 C12.46385498 44.63736572 11.1598877 44.62165527 9.81640625 44.60546875 C9.11603745 44.60122391 8.41566864 44.59697906 7.69407654 44.59260559 C5.48314 44.57597156 3.27315543 44.5383518 1.0625 44.5 C-0.44725235 44.48493326 -1.95701916 44.47124836 -3.46679688 44.45898438 C-7.14483434 44.42611921 -10.82232407 44.37444582 -14.5 44.3125 C-14.52464513 38.2069529 -14.54283371 32.10143449 -14.55493164 25.99584961 C-14.55997288 23.91706844 -14.56680574 21.83829084 -14.57543945 19.75952148 C-14.58751422 16.77847414 -14.59323024 13.79747351 -14.59765625 10.81640625 C-14.60539818 9.41328941 -14.60539818 9.41328941 -14.61329651 7.98182678 C-14.61337204 7.12100998 -14.61344757 6.26019318 -14.61352539 5.37329102 C-14.615746 4.61162125 -14.61796661 3.84995148 -14.62025452 3.06520081 C-14.26395365 -2.12785833 -3.81251019 0.02865113 0 0 Z M1.5 12.3125 C1.5 13.9625 1.5 15.6125 1.5 17.3125 C6.29308342 17.77772293 6.29308342 17.77772293 10.4375 15.8125 C10.788125 15.3175 11.13875 14.8225 11.5 14.3125 C9.73863645 12.12918311 9.73863645 12.12918311 7.5546875 12.1171875 C4.52734375 12.21484375 4.52734375 12.21484375 1.5 12.3125 Z M1.5 27.3125 C1.5 29.2925 1.5 31.2725 1.5 33.3125 C2.93655854 33.39381463 4.3744483 33.45183559 5.8125 33.5 C6.61300781 33.53480469 7.41351562 33.56960938 8.23828125 33.60546875 C10.97851584 33.25051608 11.79171079 32.41883718 13.5 30.3125 C11.79171079 28.20616282 10.97851584 27.37448392 8.23828125 27.01953125 C7.03751953 27.07173828 7.03751953 27.07173828 5.8125 27.125 C5.00425781 27.15207031 4.19601562 27.17914062 3.36328125 27.20703125 C2.74839844 27.24183594 2.13351562 27.27664063 1.5 27.3125 Z " fill="#D2B638" transform="translate(633.5,701.6875)"/>
<path d="M0 0 C5.60304676 4.77800265 9.26418155 9.6523617 10.27734375 17.015625 C10.78803233 24.1403535 8.20654176 30.21537747 3.61328125 35.63671875 C-2.72746559 41.4215645 -9.86355301 42.53175217 -18.171875 42.28125 C-25.17704583 41.58460318 -30.27037788 37.97468026 -35 33 C-38.92432442 27.375135 -39.73336696 20.19066832 -38.5625 13.5 C-36.86697229 7.79686134 -34.24180928 3.05161155 -29.07421875 -0.21875 C-19.34949851 -5.34666275 -9.74380172 -5.23485049 0 0 Z M-13 9 C-17.81942743 10.05807018 -17.81942743 10.05807018 -21.9375 12.625 C-23.80766078 16.80535938 -23.57254631 21.02211275 -22.3125 25.375 C-20.4312572 27.70415776 -18.89488423 28.27627894 -16 29 C-12.54913726 28.85914846 -10.54519164 28.34433156 -7.625 26.5 C-5.19963268 22.76866566 -5.33283998 19.32859773 -6 15 C-7.11564938 12.41982705 -7.11564938 12.41982705 -9 11 C-9.99 11 -10.98 11 -12 11 C-12.33 10.34 -12.66 9.68 -13 9 Z " fill="#D1B337" transform="translate(703,705)"/>
<path d="M0 0 C4.85078235 4.22711033 8.62129555 8.87204691 9.40625 15.35546875 C9.58329777 22.59229629 9.55257387 28.29119869 4.8515625 34.1953125 C-1.00650971 39.90507909 -6.64819436 42.1240652 -14.75 42.25 C-21.44059215 42.14444454 -26.17395185 41.60982027 -31.1953125 36.97265625 C-37.47740765 30.20645699 -39.50135986 25.24534037 -39.30859375 16.00390625 C-38.68499416 9.93367735 -36.18844827 5.84973917 -31.8125 1.6875 C-22.16976192 -5.87421982 -10.52380782 -5.63775419 0 0 Z M-20.875 10.875 C-23.4766813 14.70100192 -23.52443974 17.07982579 -23.46875 21.59765625 C-22.90088939 24.50794187 -22.08898648 25.90166683 -20 28 C-17.01258304 29.05632423 -14.15278451 29.21664704 -11 29 C-8.29441138 27.79504081 -8.29441138 27.79504081 -7 25 C-6.03708491 20.72465699 -5.60326688 17.19019937 -7 13 C-9.63186072 10.36813928 -11.31766096 9.12793857 -15 8.4375 C-18.13616204 8.82753119 -18.13616204 8.82753119 -20.875 10.875 Z " fill="#1D3B67" transform="translate(606,705)"/>
<path d="M0 0 C4.95 0 9.9 0 15 0 C15.06058594 1.90265625 15.12117188 3.8053125 15.18359375 5.765625 C15.26800425 8.26042429 15.352652 10.75521555 15.4375 13.25 C15.47681641 14.50425781 15.51613281 15.75851562 15.55664062 17.05078125 C15.61948242 18.85869141 15.61948242 18.85869141 15.68359375 20.703125 C15.72025146 21.81333008 15.75690918 22.92353516 15.79467773 24.06738281 C15.96710904 26.53021849 16.29595439 28.64482965 17 31 C19.64 31 22.28 31 25 31 C26.1007076 27.6978772 26.20627072 25.05916721 26.31640625 21.58203125 C26.35830078 20.32841797 26.40019531 19.07480469 26.44335938 17.78320312 C26.48267578 16.47287109 26.52199219 15.16253906 26.5625 13.8125 C26.60570992 12.47720022 26.649325 11.14191348 26.69335938 9.80664062 C26.79956434 6.53788766 26.90029785 3.26895777 27 0 C31.95 0 36.9 0 42 0 C42.05407169 4.52099449 42.09371169 9.04133849 42.125 13.5625 C42.14175781 14.83931641 42.15851562 16.11613281 42.17578125 17.43164062 C42.22763108 27.41273347 41.89889937 33.86877612 34.83984375 41.33203125 C30.04597442 45.67806565 24.21739097 45.43890589 18.0390625 45.30859375 C12.66359451 44.76275574 8.14581105 43.26416514 4.37109375 39.28125 C0.50002897 34.0757156 -0.12350875 30.25964388 -0.09765625 23.92578125 C-0.0962413 23.2419487 -0.09482635 22.55811615 -0.09336853 21.8535614 C-0.08777876 19.67316278 -0.07522822 17.49286749 -0.0625 15.3125 C-0.05748367 13.83268378 -0.052921 12.35286594 -0.04882812 10.87304688 C-0.0386643 7.24862624 -0.0190871 3.62442856 0 0 Z " fill="#1D3B67" transform="translate(482,702)"/>
<path d="M0 0 C-0.42594588 1.44096586 -0.86626633 2.87768712 -1.3125 4.3125 C-1.55613281 5.11300781 -1.79976562 5.91351562 -2.05078125 6.73828125 C-3.04182023 9.09964573 -4.08074943 10.33879993 -6 12 C-7.010625 11.67 -8.02125 11.34 -9.0625 11 C-12.76343438 9.93720622 -16.14200649 9.76852039 -20 10 C-20.33 10.33 -20.66 10.66 -21 11 C-19.98679687 11.23074219 -18.97359375 11.46148438 -17.9296875 11.69921875 C-4.56483151 14.89812949 -4.56483151 14.89812949 0 20 C1.85618207 23.71236414 1.44809981 27.94843088 1 32 C-1.19944673 36.48035444 -3.50131818 38.86312614 -8 41 C-17.60663425 44.08015403 -29.09379197 42.45310402 -38 38 C-36.85814266 33.52040582 -35.56984833 29.85477249 -33 26 C-30.38017191 26.64479139 -27.78792179 27.33779229 -25.1875 28.0625 C-21.34863609 29.03482013 -17.94771739 29.16448822 -14 29 C-14 28.34 -14 27.68 -14 27 C-14.94875 26.896875 -15.8975 26.79375 -16.875 26.6875 C-24.39258514 25.57208594 -31.13767356 24.2739696 -36 18 C-37.35576637 13.9327009 -37.78580432 10.26747149 -36.3515625 6.12890625 C-33.88350078 1.22442463 -30.9507803 -0.74174933 -26 -3 C-17.57170833 -5.59332051 -7.69038036 -4.122321 0 0 Z " fill="#CCB036" transform="translate(855,705)"/>
<path d="M0 0 C-0.42594588 1.44096586 -0.86626633 2.87768712 -1.3125 4.3125 C-1.55613281 5.11300781 -1.79976562 5.91351562 -2.05078125 6.73828125 C-3.04182023 9.09964573 -4.08074943 10.33879993 -6 12 C-7.2375 11.505 -7.2375 11.505 -8.5 11 C-12.61959741 9.82297217 -15.73296685 9.78303221 -20 10 C-20.33 10.33 -20.66 10.66 -21 11 C-19.49759766 11.32871094 -19.49759766 11.32871094 -17.96484375 11.6640625 C-4.18091592 14.86133859 -4.18091592 14.86133859 -0.046875 19.02734375 C2.2901106 23.430992 1.81983838 28.22208942 1 33 C-1.15014608 37.48726139 -4.74618985 39.44975322 -9.24609375 41.2734375 C-17.52242297 43.45697968 -26.09834891 42.42789102 -34.20703125 40.046875 C-36 39 -36 39 -36.8828125 37.1875 C-37.03300992 34.38381479 -36.28301233 32.7649951 -35.0625 30.25 C-34.68222656 29.45078125 -34.30195312 28.6515625 -33.91015625 27.828125 C-33.60980469 27.22484375 -33.30945313 26.6215625 -33 26 C-30.38017191 26.64479139 -27.78792179 27.33779229 -25.1875 28.0625 C-21.34863609 29.03482013 -17.94771739 29.16448822 -14 29 C-14 28.34 -14 27.68 -14 27 C-14.969375 26.896875 -15.93875 26.79375 -16.9375 26.6875 C-22.14062221 25.95481544 -27.29761973 24.35119014 -32 22 C-32 21.34 -32 20.68 -32 20 C-32.66 20 -33.32 20 -34 20 C-34 19.34 -34 18.68 -34 18 C-34.66 18 -35.32 18 -36 18 C-37.19073048 11.67334767 -37.27308087 7.64324289 -34 2 C-25.50316342 -7.1504394 -9.99516454 -4.99758227 0 0 Z " fill="#1C3A65" transform="translate(564,705)"/>
<path d="M0 0 C1.68334948 1.43849865 3.30069579 2.90454481 4.87109375 4.46484375 C3.80790073 7.65442282 3.01398644 8.54863007 0.55859375 10.71484375 C-0.03566406 11.25625 -0.62992188 11.79765625 -1.2421875 12.35546875 C-3.12890625 13.46484375 -3.12890625 13.46484375 -5.21875 13.23828125 C-7.12890625 12.46484375 -7.12890625 12.46484375 -9.37890625 10.83984375 C-13.32943675 8.8645785 -15.83578131 9.66443063 -20.12890625 10.46484375 C-20.12890625 11.12484375 -20.12890625 11.78484375 -20.12890625 12.46484375 C-20.78890625 12.46484375 -21.44890625 12.46484375 -22.12890625 12.46484375 C-22.37679079 16.678881 -22.45916873 20.40800382 -21.19140625 24.46484375 C-18.40024793 27.17142152 -16.10491377 27.43525857 -12.29296875 27.68359375 C-9.88536367 27.62963203 -9.88536367 27.62963203 -7.56640625 25.52734375 C-7.09203125 24.84671875 -6.61765625 24.16609375 -6.12890625 23.46484375 C-3.13670357 24.82854674 -0.83864096 26.41392458 1.62109375 28.58984375 C2.2346875 29.12867188 2.84828125 29.6675 3.48046875 30.22265625 C3.939375 30.63257813 4.39828125 31.0425 4.87109375 31.46484375 C2.8787925 36.44559687 -0.51023607 38.36188295 -5.18359375 40.5078125 C-12.47272471 42.8762967 -19.66790432 42.53030297 -26.62890625 39.33984375 C-31.98802778 36.26878872 -35.83373155 32.28192446 -38.12890625 26.46484375 C-38.94397208 19.2938319 -39.57271706 11.64226342 -35.69140625 5.27734375 C-27.11883291 -5.34695922 -11.25096791 -8.11308328 0 0 Z " fill="#CEB236" transform="translate(813.12890625,705.53515625)"/>
<path d="M0 0 C0.73541016 0.00202423 1.47082031 0.00404846 2.22851562 0.00613403 C2.97939453 0.00517731 3.73027344 0.00422058 4.50390625 0.00323486 C6.09440189 0.00255315 7.6849003 0.00440682 9.27539062 0.00857544 C11.71816217 0.01392386 14.16074984 0.00863019 16.60351562 0.00222778 C18.1451827 0.00288857 19.68684966 0.00416973 21.22851562 0.00613403 C21.96392578 0.0041098 22.69933594 0.00208557 23.45703125 0 C28.61356402 0.02399493 28.61356402 0.02399493 29.72851562 1.13894653 C29.8716185 4.80810423 29.77073224 8.46610094 29.72851562 12.13894653 C23.12851562 12.13894653 16.52851563 12.13894653 9.72851562 12.13894653 C9.72851562 14.11894653 9.72851562 16.09894653 9.72851562 18.13894653 C10.94410156 18.12734497 12.1596875 18.11574341 13.41210938 18.10379028 C14.99674326 18.09441375 16.5813788 18.08531341 18.16601562 18.07644653 C18.96845703 18.06806763 19.77089844 18.05968872 20.59765625 18.05105591 C22.64146783 18.04243223 24.68535464 18.08666503 26.72851562 18.13894653 C27.72851562 19.13894653 27.72851562 19.13894653 27.82617188 21.64285278 C27.79361979 24.47488403 27.76106771 27.30691528 27.72851562 30.13894653 C21.78851563 30.13894653 15.84851563 30.13894653 9.72851562 30.13894653 C9.72851562 34.75894653 9.72851562 39.37894653 9.72851562 44.13894653 C10.38851563 44.46894653 11.04851562 44.79894653 11.72851562 45.13894653 C8.91595281 45.16578966 6.10364321 45.18570841 3.29101562 45.20144653 C2.48857422 45.20982544 1.68613281 45.21820435 0.859375 45.22683716 C-1.18443658 45.23546084 -3.22832339 45.19122803 -5.27148438 45.13894653 C-6.80232862 43.60810229 -6.39864216 42.2269151 -6.40087891 40.09402466 C-6.40403107 39.23643555 -6.40718323 38.37884644 -6.41043091 37.49526978 C-6.40840668 36.56299561 -6.40638245 35.63072144 -6.40429688 34.67019653 C-6.4052536 33.71955322 -6.40621033 32.76890991 -6.40719604 31.78945923 C-6.40787794 29.77525771 -6.40602299 27.76105401 -6.40185547 25.74685669 C-6.39650735 22.65224299 -6.40180015 19.55777444 -6.40820312 16.46316528 C-6.40754235 14.51134204 -6.40626119 12.5595189 -6.40429688 10.60769653 C-6.40632111 9.67542236 -6.40834534 8.74314819 -6.41043091 7.78262329 C-6.40727875 6.92503418 -6.40412659 6.06744507 -6.40087891 5.18386841 C-6.40008331 4.42521484 -6.39928772 3.66656128 -6.39846802 2.88491821 C-6.11711242 -0.98360291 -3.2061437 0.01491917 0 0 Z " fill="#1B3C67" transform="translate(449.271484375,701.8610534667969)"/>
<path d="M0 0 C5.53588533 -0.02464775 11.071739 -0.04283496 16.60766602 -0.05493164 C18.4924373 -0.05997244 20.37720465 -0.06680498 22.26196289 -0.07543945 C24.96501636 -0.08751617 27.66801831 -0.09323068 30.37109375 -0.09765625 C31.21900986 -0.10281754 32.06692596 -0.10797882 32.9405365 -0.11329651 C34.96071068 -0.11349195 36.98077934 -0.06206211 39 0 C40 1 40 1 40.09765625 3.72265625 C40.06510417 6.81510417 40.03255208 9.90755208 40 13 C36.04 13 32.08 13 28 13 C28 23.23 28 33.46 28 44 C22.72 44 17.44 44 12 44 C12 33.77 12 23.54 12 13 C8.04 13 4.08 13 0 13 C0 8.71 0 4.42 0 0 Z " fill="#D4B939" transform="translate(713,702)"/>
<path d="M0 0 C1.27875 0.00257813 2.5575 0.00515625 3.875 0.0078125 C5.15375 0.00523437 6.4325 0.00265625 7.75 0 C10.875 0.1328125 10.875 0.1328125 11.875 1.1328125 C11.96768999 2.48376232 11.99247326 3.83948341 11.98852539 5.19360352 C11.98844986 6.05442032 11.98837433 6.91523712 11.98829651 7.80213928 C11.98313522 8.73755051 11.97797394 9.67296173 11.97265625 10.63671875 C11.9712413 11.58973373 11.96982635 12.54274872 11.96836853 13.52464294 C11.96275152 16.58156415 11.95019616 19.63841327 11.9375 22.6953125 C11.93248719 24.76236874 11.92792391 26.82942612 11.92382812 28.89648438 C11.91277656 33.97528838 11.89550055 39.0540382 11.875 44.1328125 C6.595 44.1328125 1.315 44.1328125 -4.125 44.1328125 C-4.14964513 38.0272654 -4.16783371 31.92174699 -4.17993164 25.81616211 C-4.18497288 23.73738094 -4.19180574 21.65860334 -4.20043945 19.57983398 C-4.21251422 16.59878664 -4.21823024 13.61778601 -4.22265625 10.63671875 C-4.23039818 9.23360191 -4.23039818 9.23360191 -4.23829651 7.80213928 C-4.23837204 6.94132248 -4.23844757 6.08050568 -4.23852539 5.19360352 C-4.240746 4.43193375 -4.24296661 3.67026398 -4.24525452 2.88551331 C-4.02961151 -0.25746781 -3.19822775 0.13592468 0 0 Z " fill="#D7BA39" transform="translate(759.125,701.8671875)"/>
<path d="M0 0 C2.875 2 2.875 2 5 4 C5.433125 3.34 5.86625 2.68 6.3125 2 C10.47534551 -1.09793154 14.96588889 -0.50757153 20 0 C21.92382741 1.92382741 21.21841339 5.25661659 21.25 7.8125 C21.27578125 9.05644531 21.3015625 10.30039062 21.328125 11.58203125 C20.98401301 15.1665311 20.55613037 16.52807157 18 19 C13.3980118 20.43172966 10.41019488 19.78507888 6 18 C6.33 16.02 6.66 14.04 7 12 C6.01 12 5.02 12 4 12 C3.566875 12.495 3.13375 12.99 2.6875 13.5 C1 15 1 15 -1.875 15.5 C-5 15 -5 15 -7.9375 12.9375 C-10 10 -10 10 -10 6.375 C-8.25415682 0.48277927 -6.20788867 -0.86910441 0 0 Z M-4 5 C-4.33 6.32 -4.66 7.64 -5 9 C-3.515 9.99 -3.515 9.99 -2 11 C-1.34 10.67 -0.68 10.34 0 10 C0 8.35 0 6.7 0 5 C-1.32 5 -2.64 5 -4 5 Z M11 5 C11 6.32 11 7.64 11 9 C11.99 9.33 12.98 9.66 14 10 C14.66 9.67 15.32 9.34 16 9 C15.67 7.68 15.34 6.36 15 5 C13.68 5 12.36 5 11 5 Z " fill="#646B83" transform="translate(800,754)"/>
<path d="M0 0 C2.875 2.5 2.875 2.5 5 5 C5.66 4.01 6.32 3.02 7 2 C7.66 2 8.32 2 9 2 C9.33 1.34 9.66 0.68 10 0 C13.34270828 0.30388257 15.59212408 0.73854108 18.4375 2.5625 C20.16962571 5.26461611 20.20665191 6.03536036 19.9375 9.125 C19 13 19 13 16 15 C14.02734375 15.046875 14.02734375 15.046875 11.9375 14.75 C11.24527344 14.66234375 10.55304687 14.5746875 9.83984375 14.484375 C8 14 8 14 6 12 C6 11.01 6 10.02 6 9 C3.7763932 10.9254644 3.7763932 10.9254644 3 14 C0.13702791 14.63082436 -2.11141991 15.11191915 -5 15 C-8.0625 13 -8.0625 13 -10 10 C-10 6.43116591 -9.68455497 4.11690548 -7.8125 1.0625 C-4.99452602 -0.58941578 -3.20595185 -0.5129523 0 0 Z M-5 5 C-5 5.33 -5 5.66 -5 6 C-3.35 6 -1.7 6 0 6 C0 5.67 0 5.34 0 5 C-1.65 5 -3.3 5 -5 5 Z M11 5 C15 6 15 6 15 6 Z " fill="#666E86" transform="translate(526,754)"/>
<path d="M0 0 C2.4375 1.5 2.4375 1.5 4 3 C4.515625 2.505 5.03125 2.01 5.5625 1.5 C8.80680017 -0.49649241 11.26217334 -0.21564385 15 0 C16 3 16 3 15 6 C15.33 6.33 15.66 6.66 16 7 C16.25 9.9375 16.25 9.9375 16 13 C12.33134759 15.44576827 10.32799657 15.23607254 6 15 C5.34 14.67 4.68 14.34 4 14 C4 12.35 4 10.7 4 9 C3.566875 10.2065625 3.566875 10.2065625 3.125 11.4375 C2 14 2 14 0 15 C-4.03191305 15.53758841 -5.5619036 15.3075996 -8.9375 12.9375 C-11 10 -11 10 -11 6.375 C-9.08042172 -0.10357669 -6.689676 -0.70417642 0 0 Z M-5 5 C-1 6 -1 6 -1 6 Z " fill="#60677E" transform="translate(840,754)"/>
<path d="M0 0 C2.97 0 5.94 0 9 0 C9.33 0.66 9.66 1.32 10 2 C10.515625 1.649375 11.03125 1.29875 11.5625 0.9375 C15.16264088 -0.44716957 17.33726697 -0.13211748 21 1 C23.0625 4.375 23.0625 4.375 24 8 C23.01 9.485 23.01 9.485 22 11 C22 11.99 22 12.98 22 14 C19.14675563 15.42662219 17.16545451 15.31033868 14 15 C11.125 13.375 11.125 13.375 9 11 C8.6875 7.75 8.6875 7.75 9 5 C6.92064793 5.4100567 6.92064793 5.4100567 5 7 C4.31209578 9.69658452 4.18053536 12.2017019 4 15 C2.68 15 1.36 15 0 15 C0 10.05 0 5.1 0 0 Z M14 5 C18 6 18 6 18 6 Z " fill="#626983" transform="translate(662,754)"/>
<path d="M0 0 C0.90105469 0.00902344 1.80210937 0.01804687 2.73046875 0.02734375 C3.41753906 0.03894531 4.10460937 0.05054688 4.8125 0.0625 C4.8934313 2.66728883 4.95295434 5.26956653 5 7.875 C5.03770508 8.98198242 5.03770508 8.98198242 5.07617188 10.11132812 C5.15020831 15.56534582 5.15020831 15.56534582 3.48046875 18.0234375 C0.93139995 19.611382 -1.20627776 19.88362667 -4.1875 20.0625 C-7.0625 19.125 -7.0625 19.125 -9.1875 18.0625 C-9.166875 17.11375 -9.14625 16.165 -9.125 15.1875 C-8.96198174 12.15583717 -8.96198174 12.15583717 -10.1875 10.0625 C-10.44610135 6.01107881 -10.49191554 4.51912331 -8.1875 1.0625 C-5.17259443 0.05753148 -3.14568308 -0.04085303 0 0 Z M-5.1875 5.0625 C-5.1875 6.3825 -5.1875 7.7025 -5.1875 9.0625 C-4.1975 9.3925 -3.2075 9.7225 -2.1875 10.0625 C-1.5275 9.7325 -0.8675 9.4025 -0.1875 9.0625 C-0.1875 7.7425 -0.1875 6.4225 -0.1875 5.0625 C-1.8375 5.0625 -3.4875 5.0625 -5.1875 5.0625 Z " fill="#646B84" transform="translate(590.1875,753.9375)"/>
<path d="M0 0 C4.22367735 0.27249531 8.7291099 1.1041099 11.875 4.25 C12.26652344 7.77371092 12.28541808 9.62616451 10.3125 12.625 C7.05817497 14.79455002 4.70369586 14.54451507 0.875 14.25 C0.875 15.9 0.875 17.55 0.875 19.25 C-0.775 18.92 -2.425 18.59 -4.125 18.25 C-4.15184312 15.43743719 -4.17176188 12.62512759 -4.1875 9.8125 C-4.19587891 9.01005859 -4.20425781 8.20761719 -4.21289062 7.38085938 C-4.2215143 5.33704779 -4.1772815 3.29316098 -4.125 1.25 C-3.125 0.25 -3.125 0.25 0 0 Z M0.875 5.25 C0.875 6.57 0.875 7.89 0.875 9.25 C2.525 9.25 4.175 9.25 5.875 9.25 C5.545 7.93 5.215 6.61 4.875 5.25 C3.555 5.25 2.235 5.25 0.875 5.25 Z " fill="#636A82" transform="translate(465.125,749.75)"/>
<path d="M0 0 C1.65322266 0.01740234 1.65322266 0.01740234 3.33984375 0.03515625 C4.99693359 0.04869141 4.99693359 0.04869141 6.6875 0.0625 C7.54214844 0.07410156 8.39679687 0.08570313 9.27734375 0.09765625 C9.60734375 1.74765625 9.93734375 3.39765625 10.27734375 5.09765625 C7.63734375 5.09765625 4.99734375 5.09765625 2.27734375 5.09765625 C2.27734375 6.08765625 2.27734375 7.07765625 2.27734375 8.09765625 C4.58734375 8.09765625 6.89734375 8.09765625 9.27734375 8.09765625 C9.27734375 9.74765625 9.27734375 11.39765625 9.27734375 13.09765625 C6.96734375 13.09765625 4.65734375 13.09765625 2.27734375 13.09765625 C2.27734375 14.74765625 2.27734375 16.39765625 2.27734375 18.09765625 C0.62119718 18.47984392 -1.04722649 18.81160727 -2.72265625 19.09765625 C-4.60818155 17.21213095 -3.85512314 14.51996794 -3.859375 12.015625 C-3.85550781 11.21769531 -3.85164062 10.41976562 -3.84765625 9.59765625 C-3.85152344 8.79972656 -3.85539063 8.00179687 -3.859375 7.1796875 C-3.84741967 0.13799927 -3.84741967 0.13799927 0 0 Z " fill="#5F667C" transform="translate(607.72265625,749.90234375)"/>
<path d="M0 0 C2.41486943 2.41486943 2.2961925 3.12707789 2.3125 6.4375 C2.32925781 7.21996094 2.34601562 8.00242187 2.36328125 8.80859375 C1.91295982 11.52504882 1.20330408 12.38559747 -1 14 C-4.89504791 14.49573337 -7.09493717 14.58016848 -10.4375 12.4375 C-12.56667558 9.11598609 -12.42255137 6.87338754 -12 3 C-8.65327926 -2.02008111 -5.49294068 -1.09858814 0 0 Z M-7 4 C-3 5 -3 5 -3 5 Z " fill="#5B6278" transform="translate(718,755)"/>
<path d="M0 0 C1.32 0 2.64 0 4 0 C4 1.65 4 3.3 4 5 C7.465 4.505 7.465 4.505 11 4 C11 4.66 11 5.32 11 6 C11.66 6 12.32 6 13 6 C14.26237731 8.52475462 14.09856404 10.31200466 14.0625 13.125 C14.05347656 14.03507813 14.04445313 14.94515625 14.03515625 15.8828125 C14.02355469 16.58148437 14.01195312 17.28015625 14 18 C12.35 18.33 10.7 18.66 9 19 C8.67 16.03 8.34 13.06 8 10 C7.01 9.67 6.02 9.34 5 9 C4.67 12.3 4.34 15.6 4 19 C2.68 19 1.36 19 0 19 C0 12.73 0 6.46 0 0 Z " fill="#656D85" transform="translate(736,750)"/>
<path d="M0 0 C1.67542976 0.28604898 3.34385343 0.61781233 5 1 C5 3.97 5 6.94 5 10 C5.99 10 6.98 10 8 10 C8 7.03 8 4.06 8 1 C9.65 0.67 11.3 0.34 13 0 C13 4.95 13 9.9 13 15 C3.91304348 15.47826087 3.91304348 15.47826087 0.375 13.625 C-1.74414491 9.57935971 -1.49794072 5.48146645 -1 1 C-0.67 0.67 -0.34 0.34 0 0 Z " fill="#5F667C" transform="translate(646,754)"/>
<path d="M0 0 C2.475 0.495 2.475 0.495 5 1 C5.33 3.64 5.66 6.28 6 9 C6.99 9.33 7.98 9.66 9 10 C9 7.03 9 4.06 9 1 C10.65 0.67 12.3 0.34 14 0 C14 4.62 14 9.24 14 14 C10.01351669 14.79729666 6.99236844 15.34716247 3 15 C1.33203125 13.87109375 1.33203125 13.87109375 0 12 C-0.29296875 9.08203125 -0.29296875 9.08203125 -0.1875 5.8125 C-0.16042969 4.72582031 -0.13335938 3.63914062 -0.10546875 2.51953125 C-0.07066406 1.68808594 -0.03585937 0.85664062 0 0 Z " fill="#626980" transform="translate(619,754)"/>
<path d="M0 0 C0.77988281 -0.01417969 1.55976562 -0.02835938 2.36328125 -0.04296875 C4.95414065 0.21394 6.52189318 0.74854271 8.6875 2.1875 C9.64820434 5.06961302 9.79331883 6.88600044 9.75 9.875 C9.74097656 10.68324219 9.73195313 11.49148438 9.72265625 12.32421875 C9.71105469 12.93910156 9.69945312 13.55398438 9.6875 14.1875 C8.0375 14.5175 6.3875 14.8475 4.6875 15.1875 C4.3575 12.2175 4.0275 9.2475 3.6875 6.1875 C2.6975 6.1875 1.7075 6.1875 0.6875 6.1875 C0.3575 9.1575 0.0275 12.1275 -0.3125 15.1875 C-1.9625 14.8575 -3.6125 14.5275 -5.3125 14.1875 C-5.33935938 12.04173363 -5.35883088 9.89587355 -5.375 7.75 C-5.38660156 6.55503906 -5.39820313 5.36007812 -5.41015625 4.12890625 C-5.26060262 -0.37564919 -4.09997359 0.03355134 0 0 Z " fill="#626982" transform="translate(569.3125,753.8125)"/>
<path d="M0 0 C3.35891022 0.50328948 4.22192343 0.70556598 6.625 3.25 C7.64514328 6.45616458 7.7053379 7.86612146 6.5 11 C4.33925205 13.96102497 3.18437046 14.86895034 -0.4375 15.5625 C-4.62178713 14.79395747 -6.06927503 13.46194162 -8.5 10 C-8.5 6.48229082 -8.35932019 4.14750683 -6.21875 1.2890625 C-3.96004111 -0.40496917 -2.77765106 -0.29628278 0 0 Z M-2.5 5 C-2.83 6.32 -3.16 7.64 -3.5 9 C-1.52 9.99 -1.52 9.99 0.5 11 C1.79633621 9.93354885 1.79633621 9.93354885 1.5625 7.4375 C1.541875 6.633125 1.52125 5.82875 1.5 5 C0.18 5 -1.14 5 -2.5 5 Z " fill="#636B84" transform="translate(492.5,754)"/>
<path d="M0 0 C1.5675 -0.061875 3.135 -0.12375 4.75 -0.1875 C6.07257812 -0.23970703 6.07257812 -0.23970703 7.421875 -0.29296875 C10.58892512 0.06692331 11.86402869 0.62669854 14 3 C14.390625 5.91796875 14.390625 5.91796875 14.25 9.1875 C14.21390625 10.27417969 14.1778125 11.36085938 14.140625 12.48046875 C14.07101562 13.72763672 14.07101562 13.72763672 14 15 C12.35 15 10.7 15 9 15 C9 11.7 9 8.4 9 5 C7.68 5 6.36 5 5 5 C5 7.97 5 10.94 5 14 C3.35 14.33 1.7 14.66 0 15 C0 10.05 0 5.1 0 0 Z " fill="#636B82" transform="translate(752,754)"/>
<path d="M0 0 C0.78503906 0.09667969 1.57007813 0.19335938 2.37890625 0.29296875 C4.4375 0.8125 4.4375 0.8125 6.4375 2.8125 C6.93347707 5.85180135 6.88356903 8.76807888 6.4375 11.8125 C4.25330958 14.58474169 2.91566341 14.75272957 -0.5625 15.1875 C-4.04066341 14.75272957 -5.37830958 14.58474169 -7.5625 11.8125 C-8.19694835 7.98442399 -8.59942146 4.30918853 -6.3203125 1.01953125 C-3.99074143 -0.58010755 -2.76753124 -0.38754556 0 0 Z M-2.5625 4.8125 C-2.8925 5.8025 -3.2225 6.7925 -3.5625 7.8125 C-2.5725 9.2975 -2.5725 9.2975 -1.5625 10.8125 C-0.9025 10.8125 -0.2425 10.8125 0.4375 10.8125 C1.54586423 8.92933841 1.54586423 8.92933841 2.4375 6.8125 C2.1075 6.1525 1.7775 5.4925 1.4375 4.8125 C0.1175 4.8125 -1.2025 4.8125 -2.5625 4.8125 Z " fill="#636A82" transform="translate(775.5625,754.1875)"/>
<path d="M0 0 C10.45243619 -0.49187935 10.45243619 -0.49187935 12.84375 1.65625 C14.26976513 4.54682122 14.30206939 6.54205698 14.1875 9.75 C14.16042969 10.73484375 14.13335938 11.7196875 14.10546875 12.734375 C14.07066406 13.48203125 14.03585937 14.2296875 14 15 C12.35 14.67 10.7 14.34 9 14 C9 11.03 9 8.06 9 5 C7.02 5.99 7.02 5.99 5 7 C4.30367785 8.95365445 4.30367785 8.95365445 4.25 11.125 C4.1675 12.40375 4.085 13.6825 4 15 C2.68 15 1.36 15 0 15 C0 10.05 0 5.1 0 0 Z " fill="#626A80" transform="translate(501,754)"/>
<path d="M0 0 C2.875 2.3125 2.875 2.3125 5 5 C5 5.99 5 6.98 5 8 C0.545 8.495 0.545 8.495 -4 9 C-2.68 9.33 -1.36 9.66 0 10 C1.33333333 10.33333333 2.66666667 10.66666667 4 11 C3.67 11.99 3.34 12.98 3 14 C0.13702791 14.63082436 -2.11141991 15.11191915 -5 15 C-8.0625 13 -8.0625 13 -10 10 C-10 6.43116591 -9.68455497 4.11690548 -7.8125 1.0625 C-4.99452602 -0.58941578 -3.20595185 -0.5129523 0 0 Z M-5 5 C-5 5.33 -5 5.66 -5 6 C-3.35 6 -1.7 6 0 6 C0 5.67 0 5.34 0 5 C-1.65 5 -3.3 5 -5 5 Z " fill="#656B88" transform="translate(526,754)"/>
<path d="M0 0 C1.18851563 0.00902344 2.37703125 0.01804687 3.6015625 0.02734375 C4.51679687 0.03894531 5.43203125 0.05054688 6.375 0.0625 C6.705 1.7125 7.035 3.3625 7.375 5.0625 C5.725 5.0625 4.075 5.0625 2.375 5.0625 C2.375 9.6825 2.375 14.3025 2.375 19.0625 C0.725 19.0625 -0.925 19.0625 -2.625 19.0625 C-2.625 14.4425 -2.625 9.8225 -2.625 5.0625 C-4.605 5.0625 -6.585 5.0625 -8.625 5.0625 C-8.625 3.7425 -8.625 2.4225 -8.625 1.0625 C-5.74084117 -0.37957941 -3.20778472 -0.03144887 0 0 Z " fill="#5F667C" transform="translate(699.625,749.9375)"/>
<path d="M0 0 C0.66 0.66 1.32 1.32 2 2 C1.625 4.125 1.625 4.125 1 6 C-0.98 6 -2.96 6 -5 6 C-5 6.99 -5 7.98 -5 9 C-5 9.66 -5 10.32 -5 11 C-4.01 10.34 -3.02 9.68 -2 9 C-0.68 9 0.64 9 2 9 C1.625 11.4375 1.625 11.4375 1 14 C-1.84083641 15.42041821 -3.85477278 15.31452272 -7 15 C-9.375 13.4375 -9.375 13.4375 -11 11 C-11.46337203 6.59796571 -11.48038907 4.7205836 -9 1 C-5.75778445 -0.08073852 -3.39597063 -0.21676408 0 0 Z " fill="#60677F" transform="translate(732,754)"/>
<path d="M0 0 C1.32 0 2.64 0 4 0 C4 1.32 4 2.64 4 4 C4.99 4 5.98 4 7 4 C7 5.32 7 6.64 7 8 C6.01 8 5.02 8 4 8 C4.54226981 11.79588866 6.20127563 13.47211993 9 16 C7 18 7 18 4.5 18.25 C2 18 2 18 0 16 C-0.26991906 13.31160615 -0.08737357 10.70858064 0 8 C-0.66 8 -1.32 8 -2 8 C-2 6.68 -2 5.36 -2 4 C-1.34 4 -0.68 4 0 4 C0 2.68 0 1.36 0 0 Z " fill="#636A82" transform="translate(636,751)"/>
<path d="M0 0 C2 0.25 2 0.25 4 1 C4.94148531 3.82445592 5.07311695 5.14171618 4.87890625 8.01171875 C4.83056641 8.76904297 4.78222656 9.52636719 4.73242188 10.30664062 C4.67634766 11.09232422 4.62027344 11.87800781 4.5625 12.6875 C4.51029297 13.48478516 4.45808594 14.28207031 4.40429688 15.10351562 C4.27480978 17.06936522 4.13809959 19.03473665 4 21 C2.35 20.67 0.7 20.34 -1 20 C-1.02888514 16.85418577 -1.04675923 13.70840531 -1.0625 10.5625 C-1.07087891 9.66466797 -1.07925781 8.76683594 -1.08789062 7.84179688 C-1.09111328 6.98779297 -1.09433594 6.13378906 -1.09765625 5.25390625 C-1.10551147 4.06776733 -1.10551147 4.06776733 -1.11352539 2.85766602 C-1 1 -1 1 0 0 Z " fill="#666E86" transform="translate(479,748)"/>
<path d="M0 0 C1.98 0.495 1.98 0.495 4 1 C4 7.6 4 14.2 4 21 C2.35 21 0.7 21 -1 21 C-1.02888146 17.68751813 -1.04675799 14.37506833 -1.0625 11.0625 C-1.07087891 10.11697266 -1.07925781 9.17144531 -1.08789062 8.19726562 C-1.09111328 7.29814453 -1.09433594 6.39902344 -1.09765625 5.47265625 C-1.10289307 4.64000244 -1.10812988 3.80734863 -1.11352539 2.94946289 C-1 1 -1 1 0 0 Z " fill="#666D85" transform="translate(824,748)"/>
<path d="M0 0 C0.99 0.33 1.98 0.66 3 1 C4.27603607 4.82810821 3.86283987 8.23475107 3.5625 12.1875 C3.51029297 12.93708984 3.45808594 13.68667969 3.40429688 14.45898438 C3.27486216 16.30637082 3.13813482 18.15324371 3 20 C1.35 20.33 -0.3 20.66 -2 21 C-2 14.4 -2 7.8 -2 1 C-1.34 0.67 -0.68 0.34 0 0 Z " fill="#686F87" transform="translate(559,748)"/>
<path d="M0 0 C2.05078125 0.03255208 4.1015625 0.06510417 6.15234375 0.09765625 C6.15234375 1.74765625 6.15234375 3.39765625 6.15234375 5.09765625 C4.83234375 5.42765625 3.51234375 5.75765625 2.15234375 6.09765625 C2.15234375 9.06765625 2.15234375 12.03765625 2.15234375 15.09765625 C0.50234375 14.76765625 -1.14765625 14.43765625 -2.84765625 14.09765625 C-2.87451563 11.95188988 -2.89398713 9.8060298 -2.91015625 7.66015625 C-2.92175781 6.46519531 -2.93335938 5.27023437 -2.9453125 4.0390625 C-2.81615523 0.14884541 -2.81615523 0.14884541 0 0 Z " fill="#5E687F" transform="translate(549.84765625,753.90234375)"/>
<path d="M0 0 C1.65 0 3.3 0 5 0 C5 5.94 5 11.88 5 18 C3.35 18.33 1.7 18.66 0 19 C0 12.73 0 6.46 0 0 Z " fill="#6A7189" transform="translate(784,750)"/>
<path d="M0 0 C2 0.25 2 0.25 4 1 C5 4 5 4 4 7 C2.35 6.67 0.7 6.34 -1 6 C-1.042721 4.33388095 -1.04063832 2.66617115 -1 1 C-0.67 0.67 -0.34 0.34 0 0 Z " fill="#525669" transform="translate(479,748)"/>
<path d="M0 0 C4.84688192 0.78175515 9.3766367 2.39844278 14 4 C13.67 4.99 13.34 5.98 13 7 C9.70319035 6.34215037 7.15882078 5.10579427 4.25 3.4375 C3.45078125 2.98246094 2.6515625 2.52742187 1.828125 2.05859375 C1.22484375 1.70925781 0.6215625 1.35992188 0 1 C0 0.67 0 0.34 0 0 Z " fill="#BAA02B" transform="translate(309,813)"/>
<path d="M0 0 C2.0625 0.4375 2.0625 0.4375 4 1 C4 2.98 4 4.96 4 7 C2.35 7 0.7 7 -1 7 C-1.04254356 5.00045254 -1.04080783 2.99958364 -1 1 C-0.67 0.67 -0.34 0.34 0 0 Z " fill="#575D78" transform="translate(824,748)"/>
<path d="M0 0 C0.99 0.33 1.98 0.66 3 1 C4 4 4 4 3 7 C1.35 7 -0.3 7 -2 7 C-2 5.02 -2 3.04 -2 1 C-1.34 0.67 -0.68 0.34 0 0 Z " fill="#555B70" transform="translate(559,748)"/>
<path d="M0 0 C-0.0625 1.75 -0.0625 1.75 -1 4 C-3.25409924 5.76735287 -5.35758466 6.7699101 -8 8 C-8.99 7.67 -9.98 7.34 -11 7 C-10.34 7 -9.68 7 -9 7 C-9 6.34 -9 5.68 -9 5 C-7.5390625 3.7109375 -7.5390625 3.7109375 -5.625 2.375 C-4.99851562 1.92898438 -4.37203125 1.48296875 -3.7265625 1.0234375 C-2 0 -2 0 0 0 Z " fill="#C0AA28" transform="translate(305,638)"/>
<path d="M0 0 C4.12603811 0.98666129 7.45332788 2.70509451 11 5 C10.67 5.66 10.34 6.32 10 7 C5.71 5.35 1.42 3.7 -3 2 C-2.01 1.34 -1.02 0.68 0 0 Z " fill="#122854" transform="translate(402,618)"/>
<path d="M0 0 C0 0.99 0 1.98 0 3 C-1.96875 4.60546875 -1.96875 4.60546875 -4.5 6.1875 C-5.3353125 6.71730469 -6.170625 7.24710938 -7.03125 7.79296875 C-7.6809375 8.19128906 -8.330625 8.58960938 -9 9 C-7.48358862 4.38183807 -7.48358862 4.38183807 -5.2734375 2.63671875 C-3.515625 1.7578125 -1.7578125 0.87890625 0 0 Z " fill="#142B5C" transform="translate(430,814)"/>
<path d="M0 0 C0.33 0.99 0.66 1.98 1 3 C-1.97 3.66 -4.94 4.32 -8 5 C-8.66 4.01 -9.32 3.02 -10 2 C-6.7 2 -3.4 2 0 2 C0 1.34 0 0.68 0 0 Z " fill="#22232C" transform="translate(531,760)"/>
<path d="M0 0 C3.3 0 6.6 0 10 0 C9.67 0.66 9.34 1.32 9 2 C6.35139573 2.59355614 3.70802678 2.74209269 1 3 C0.67 2.01 0.34 1.02 0 0 Z " fill="#2B303C" transform="translate(834,762)"/>
<path d="M0 0 C3.3 0 6.6 0 10 0 C10 0.66 10 1.32 10 2 C7.36 2.33 4.72 2.66 2 3 C1.34 2.01 0.68 1.02 0 0 Z " fill="#262731" transform="translate(675,762)"/>
<path d="M0 0 C3.3 0 6.6 0 10 0 C9.67 0.66 9.34 1.32 9 2 C6.67843403 2.40729228 4.3431213 2.74438677 2 3 C1.34 2.01 0.68 1.02 0 0 Z " fill="#272A34" transform="translate(536,762)"/>
</svg>
