<?xml version="1.0" encoding="UTF-8"?>
<svg version="1.1" xmlns="http://www.w3.org/2000/svg" width="354" height="80">
<path d="M0 0 C12.77174583 0.20980281 24.24622801 10.30710419 33.21875 18.32421875 C35.1875 20.375 35.1875 20.375 36.1875 23.375 C36.90035156 22.65054687 37.61320312 21.92609375 38.34765625 21.1796875 C46.81197404 12.82015494 59.54792611 0.88358384 72.23046875 0.27734375 C73.29201172 0.29474609 73.29201172 0.29474609 74.375 0.3125 C76.2621875 0.3434375 76.2621875 0.3434375 78.1875 0.375 C79.65421702 3.30843403 79.31484055 5.9045491 79.31689453 9.1796875 C79.31952301 10.22869232 79.31952301 10.22869232 79.32220459 11.29888916 C79.32661423 13.61595118 79.32368823 15.93293717 79.3203125 18.25 C79.32098579 19.85660822 79.32195603 21.46321635 79.32321167 23.06982422 C79.32468744 26.43913746 79.32253796 29.80842421 79.31787109 33.17773438 C79.31217387 37.50233061 79.31545352 41.82686478 79.32144356 46.15145874 C79.32505242 49.46964996 79.32390908 52.78782641 79.32131577 56.10601807 C79.3206474 57.70086677 79.32147178 59.29571681 79.32379532 60.89056396 C79.32632716 63.11718311 79.32247373 65.34370093 79.31689453 67.5703125 C79.31609894 68.83891113 79.31530334 70.10750977 79.31448364 71.41455078 C79.1875 74.375 79.1875 74.375 78.1875 76.375 C67.64368688 76.39812343 57.09987975 76.41591509 46.55604649 76.42681217 C41.66064626 76.432041 36.76526332 76.43913864 31.86987305 76.45043945 C27.14962022 76.46126834 22.42938408 76.46727684 17.7091198 76.46987724 C15.90411046 76.47173149 14.09910208 76.47535209 12.29409981 76.48073006 C9.77490356 76.48794052 7.2557771 76.48899094 4.73657227 76.48852539 C3.98275772 76.49212067 3.22894318 76.49571594 2.45228577 76.49942017 C-2.69844784 76.48905216 -2.69844784 76.48905216 -3.8125 75.375 C-3.91221155 73.07988504 -3.94049866 70.78165451 -3.94189453 68.484375 C-3.94364685 67.76407104 -3.94539917 67.04376709 -3.94720459 66.30163574 C-3.95162288 63.90939966 -3.94868521 61.5172369 -3.9453125 59.125 C-3.94598555 57.46972642 -3.94695558 55.81445293 -3.94821167 54.15917969 C-3.94968861 50.68553733 -3.94753421 47.21192063 -3.94287109 43.73828125 C-3.9371738 39.27567502 -3.94045283 34.81312892 -3.94644356 30.3505249 C-3.95004927 26.9311477 -3.94891054 23.51178485 -3.94631577 20.09240723 C-3.94564652 18.44649244 -3.94647482 16.80057637 -3.94879532 15.15466309 C-3.95132202 12.85828169 -3.94748103 10.56199901 -3.94189453 8.265625 C-3.94109894 6.95625977 -3.94030334 5.64689453 -3.93948364 4.29785156 C-3.77462818 0.50328376 -3.77462818 0.50328376 0 0 Z " fill="#008FD9" transform="translate(3.8125,2.625)"/>
<path d="M0 0 C1.46671702 2.93343403 1.12734055 5.5295491 1.12939453 8.8046875 C1.13114685 9.50402405 1.13289917 10.2033606 1.13470459 10.92388916 C1.13911423 13.24095118 1.13618823 15.55793717 1.1328125 17.875 C1.13348579 19.48160822 1.13445603 21.08821635 1.13571167 22.69482422 C1.13718744 26.06413746 1.13503796 29.43342421 1.13037109 32.80273438 C1.12467387 37.12733061 1.12795352 41.45186478 1.13394356 45.77645874 C1.13755242 49.09464996 1.13640908 52.41282641 1.13381577 55.73101807 C1.1331474 57.32586677 1.13397178 58.92071681 1.13629532 60.51556396 C1.13882716 62.74218311 1.13497373 64.96870093 1.12939453 67.1953125 C1.12859894 68.46391113 1.12780334 69.73250977 1.12698364 71.03955078 C1 74 1 74 0 76 C-9.24 76 -18.48 76 -28 76 C-27.9071875 71.978125 -27.9071875 71.978125 -27.8125 67.875 C-27.7496748 54.23577243 -30.75508088 43.44028317 -37.16015625 31.49609375 C-38.63671207 28.6903242 -39.90082325 25.96720771 -41 23 C-31.86232247 11.19180404 -15.95446339 -1.91453561 0 0 Z " fill="#A3CD4E" transform="translate(82,3)"/>
<path d="M0 0 C3.96 0 7.92 0 12 0 C13.83844441 3.28890543 15.6709346 6.58088468 17.5 9.875 C18.02464844 10.81214844 18.54929688 11.74929687 19.08984375 12.71484375 C19.58613281 13.61074219 20.08242187 14.50664062 20.59375 15.4296875 C21.05458984 16.25710449 21.51542969 17.08452148 21.99023438 17.93701172 C23 20 23 20 23 22 C23.66 22 24.32 22 25 22 C25.23460937 21.18273437 25.46921875 20.36546875 25.7109375 19.5234375 C27.26733657 15.26928005 29.36169958 11.53626604 31.625 7.625 C32.04523438 6.88894531 32.46546875 6.15289062 32.8984375 5.39453125 C33.92752764 3.5936235 34.96310756 1.79642682 36 0 C39.96 0 43.92 0 48 0 C50.38776806 35.68316155 50.38776806 35.68316155 50 51 C46.04 51 42.08 51 38 51 C37.01 36.645 37.01 36.645 36 22 C33.41023355 26.89042335 33.41023355 26.89042335 30.82446289 31.78295898 C28.11111111 36.88888889 28.11111111 36.88888889 27 38 C24.69 38 22.38 38 20 38 C17.03 32.72 14.06 27.44 11 22 C10.34 31.57 9.68 41.14 9 51 C5.04 51 1.08 51 -3 51 C-2.73905175 44.21876405 -2.47240583 37.43778544 -2.20043945 30.65698242 C-2.10869583 28.34942729 -2.01851908 26.04180931 -1.92993164 23.73413086 C-1.80244663 20.42023291 -1.66935818 17.10660063 -1.53515625 13.79296875 C-1.49656998 12.7585112 -1.4579837 11.72405365 -1.41822815 10.6582489 C-1.37826218 9.6974794 -1.3382962 8.7367099 -1.29711914 7.74682617 C-1.26380997 6.90077316 -1.23050079 6.05472015 -1.19618225 5.18302917 C-1 3 -1 3 0 0 Z " fill="#231F20" transform="translate(110,16)"/>
<path d="M0 0 C4.17256669 1.39085556 5.09023519 4.2332803 7 7.9375 C7.35521729 8.61683594 7.71043457 9.29617187 8.07641602 9.99609375 C13.16124854 19.96052547 15.14752132 29.53438494 15.125 40.75 C15.12886719 42.69132812 15.12886719 42.69132812 15.1328125 44.671875 C15 48 15 48 14 51 C5.42 51 -3.16 51 -12 51 C-12.46178661 31.25862225 -11.24490546 16.86735818 0 0 Z " fill="#01619F" transform="translate(40,28)"/>
<path d="M0 0 C4.32866879 3.06174134 7.1914475 6.67105312 8.5625 11.8125 C8.5625 15.1125 8.5625 18.4125 8.5625 21.8125 C0.6425 21.8125 -7.2775 21.8125 -15.4375 21.8125 C-11.19122174 27.08201262 -11.19122174 27.08201262 -6.9375 27.25 C-3.70380161 26.8457877 -1.42073992 26.02192159 1.5625 24.8125 C3.6875 24.875 3.6875 24.875 5.5625 25.8125 C8.5625 29.99107143 8.5625 29.99107143 8.5625 32.8125 C0.96009398 37.4275107 -6.71294304 37.90066218 -15.4375 36.8125 C-20.27327119 35.23688086 -23.31070549 32.57383014 -25.9375 28.25 C-28.62313594 21.95964382 -28.40142203 14.87436997 -26.375 8.4375 C-19.69539763 -0.61228385 -10.88975895 -3.76191673 0 0 Z M-15.4375 10.8125 C-15.4375 11.8025 -15.4375 12.7925 -15.4375 13.8125 C-11.1475 13.8125 -6.8575 13.8125 -2.4375 13.8125 C-4.08606825 9.68846527 -4.08606825 9.68846527 -7.4375 7.8125 C-11.05287605 7.8125 -12.54915997 8.70479241 -15.4375 10.8125 Z " fill="#231F20" transform="translate(191.4375,31.1875)"/>
<path d="M0 0 C4.22350263 2.98735552 6.26390938 6.21531876 8.5625 10.8125 C8.5625 14.4425 8.5625 18.0725 8.5625 21.8125 C0.6425 21.8125 -7.2775 21.8125 -15.4375 21.8125 C-11.19122174 27.08201262 -11.19122174 27.08201262 -6.9375 27.25 C-3.70380161 26.8457877 -1.42073992 26.02192159 1.5625 24.8125 C3.6875 24.875 3.6875 24.875 5.5625 25.8125 C8.5625 29.99107143 8.5625 29.99107143 8.5625 32.8125 C1.14857008 37.20593996 -5.94560374 37.79271889 -14.4375 36.8125 C-19.24847315 35.49300351 -21.77059775 33.65040283 -24.875 29.75 C-28.07390131 23.73606554 -28.69134935 17.07558781 -26.75390625 10.48828125 C-24.55293153 5.69362678 -21.7325451 2.82816996 -17.4375 -0.1875 C-11.76602986 -2.07799005 -5.62952086 -1.94474357 0 0 Z M-14.4375 9.8125 C-14.7675 11.1325 -15.0975 12.4525 -15.4375 13.8125 C-11.1475 13.8125 -6.8575 13.8125 -2.4375 13.8125 C-2.95681923 9.82931682 -2.95681923 9.82931682 -5.3125 8.5625 C-8.93250244 7.28485208 -11.30675084 7.72533389 -14.4375 9.8125 Z " fill="#231F20" transform="translate(344.4375,31.1875)"/>
<path d="M0 0 C3.96 0 7.92 0 12 0 C12 13.53 12 27.06 12 41 C19.26 41 26.52 41 34 41 C34 44.3 34 47.6 34 51 C22.78 51 11.56 51 0 51 C0 34.17 0 17.34 0 0 Z " fill="#231F20" transform="translate(236,16)"/>
<path d="M0 0 C1.010625 -0.00773438 2.02125 -0.01546875 3.0625 -0.0234375 C6.36244598 0.42416156 8.28725269 1.49003955 11 3.375 C10.39421398 6.7674017 9.62621177 9.0770647 7 11.375 C3.97288937 11.71911204 1.03319321 11.60392024 -2 11.375 C-2.33 12.695 -2.66 14.015 -3 15.375 C-0.36 15.705 2.28 16.035 5 16.375 C5 19.345 5 22.315 5 25.375 C2.03 25.375 -0.94 25.375 -4 25.375 C-4 34.285 -4 43.195 -4 52.375 C-7.63 52.375 -11.26 52.375 -15 52.375 C-15 43.465 -15 34.555 -15 25.375 C-16.98 25.375 -18.96 25.375 -21 25.375 C-21 22.405 -21 19.435 -21 16.375 C-19.02 16.375 -17.04 16.375 -15 16.375 C-15.0825 15.34375 -15.165 14.3125 -15.25 13.25 C-14.95486439 8.6753981 -13.92527181 6.85370161 -11 3.375 C-7.2531531 0.65353806 -4.60922034 -0.03527465 0 0 Z " fill="#231F20" transform="translate(311,14.625)"/>
<path d="M0 0 C3.63 0 7.26 0 11 0 C11 2.97 11 5.94 11 9 C13.97 9 16.94 9 20 9 C20 11.97 20 14.94 20 18 C17.03 18 14.06 18 11 18 C11.11397544 20.43847451 11.24070974 22.87513174 11.375 25.3125 C11.4059375 26.00279297 11.436875 26.69308594 11.46875 27.40429688 C11.68124919 31.06990789 11.91933861 32.87900792 14 36 C17.465 35.505 17.465 35.505 21 35 C23.0625 37.8125 23.0625 37.8125 25 41 C24 44 24 44 22.28515625 45.01953125 C16.95719772 46.92036707 12.90946388 47.13554002 7.359375 46.12890625 C3.89218438 44.4699359 1.68348646 42.41409017 0 39 C-0.58540671 35.34864351 -0.47480898 31.81066228 -0.3125 28.125 C-0.28994141 27.15046875 -0.26738281 26.1759375 -0.24414062 25.171875 C-0.18550753 22.77964485 -0.10351153 20.3906385 0 18 C-1.98 18 -3.96 18 -6 18 C-6 15.03 -6 12.06 -6 9 C-4.02 9 -2.04 9 0 9 C0 6.03 0 3.06 0 0 Z " fill="#231F20" transform="translate(208,22)"/>
<path d="M0 0 C3.96 0 7.92 0 12 0 C12 11.88 12 23.76 12 36 C8.04 36 4.08 36 0 36 C0 24.12 0 12.24 0 0 Z " fill="#231F20" transform="translate(274,31)"/>
<path d="M0 0 C3.5625 0.3125 3.5625 0.3125 5.5 1.375 C7.19585287 4.46743758 6.99310657 6.86764741 6.5625 10.3125 C5 12.3125 5 12.3125 2.5625 13.3125 C-1.0625 13.1875 -1.0625 13.1875 -4.4375 12.3125 C-6.4375 9.3125 -6.4375 9.3125 -6.1875 5.75 C-5.19120735 1.18365869 -4.69283396 0.42662127 0 0 Z " fill="#231F20" transform="translate(279.4375,14.6875)"/>
</svg>
